<mxfile host="app.diagrams.net" modified="2024-02-27T18:13:22.385Z" agent="Mozilla/5.0 (Windows NT 10.0; Win64; x64) AppleWebKit/537.36 (KHTML, like Gecko) Chrome/122.0.0.0 Safari/537.36" etag="QptNZxAAmX_v3pF3yWv3" version="23.1.7" type="device">
  <diagram name="Сторінка-1" id="7daMsolqCuk9V1iVNlft">
    <mxGraphModel dx="2333" dy="3594" grid="1" gridSize="10" guides="1" tooltips="1" connect="1" arrows="1" fold="1" page="1" pageScale="1" pageWidth="827" pageHeight="1169" math="0" shadow="0">
      <root>
        <mxCell id="0" />
        <mxCell id="1" parent="0" />
        <mxCell id="Sul2ZSIJXjJHA9fGG1rr-3" value="" style="rounded=0;whiteSpace=wrap;html=1;fillColor=#000000;strokeColor=#6D1F00;fontColor=#ffffff;" parent="1" vertex="1">
          <mxGeometry x="910" y="-50" width="1070" height="1210" as="geometry" />
        </mxCell>
        <mxCell id="Sul2ZSIJXjJHA9fGG1rr-5" value="&lt;font style=&quot;font-size: 46px;&quot; color=&quot;#ffffff&quot;&gt;YourEng.&lt;/font&gt;" style="text;html=1;align=center;verticalAlign=middle;whiteSpace=wrap;rounded=0;fontSize=46;" parent="1" vertex="1">
          <mxGeometry x="930" y="-50" width="180" height="90" as="geometry" />
        </mxCell>
        <mxCell id="Sul2ZSIJXjJHA9fGG1rr-10" value="" style="endArrow=none;html=1;rounded=0;fontColor=#FFFFFF;strokeColor=#FFFFFF;entryX=1.009;entryY=0.05;entryDx=0;entryDy=0;entryPerimeter=0;strokeWidth=3;" parent="1" edge="1">
          <mxGeometry width="50" height="50" relative="1" as="geometry">
            <mxPoint x="910" y="30" as="sourcePoint" />
            <mxPoint x="1989.63" y="30.499999999999773" as="targetPoint" />
          </mxGeometry>
        </mxCell>
        <mxCell id="Sul2ZSIJXjJHA9fGG1rr-13" value="&lt;font style=&quot;font-size: 22px;&quot;&gt;Sign out&lt;/font&gt;" style="rounded=1;whiteSpace=wrap;html=1;" parent="1" vertex="1">
          <mxGeometry x="1840" y="-30" width="120" height="40" as="geometry" />
        </mxCell>
        <mxCell id="cNj1dF-utKpb4SikgFuL-2" value="&lt;font style=&quot;font-size: 44px;&quot;&gt;&amp;nbsp; Word1&lt;/font&gt;" style="rounded=1;whiteSpace=wrap;html=1;align=left;" parent="1" vertex="1">
          <mxGeometry x="958" y="130" width="315" height="180" as="geometry" />
        </mxCell>
        <mxCell id="cNj1dF-utKpb4SikgFuL-49" value="" style="edgeStyle=orthogonalEdgeStyle;rounded=0;orthogonalLoop=1;jettySize=auto;html=1;" parent="1" edge="1">
          <mxGeometry relative="1" as="geometry">
            <mxPoint x="1371.25" y="240" as="targetPoint" />
          </mxGeometry>
        </mxCell>
        <mxCell id="cNj1dF-utKpb4SikgFuL-53" value="" style="group" parent="1" vertex="1" connectable="0">
          <mxGeometry x="1153" y="160" width="100" height="120" as="geometry" />
        </mxCell>
        <mxCell id="cNj1dF-utKpb4SikgFuL-3" value="" style="rounded=1;whiteSpace=wrap;html=1;fillColor=#000000;strokeColor=#FFFFFF;" parent="cNj1dF-utKpb4SikgFuL-53" vertex="1">
          <mxGeometry width="100" height="120" as="geometry" />
        </mxCell>
        <mxCell id="cNj1dF-utKpb4SikgFuL-4" value="&lt;font style=&quot;font-size: 40px;&quot; color=&quot;#ffffff&quot;&gt;35&lt;/font&gt;" style="text;html=1;align=center;verticalAlign=middle;whiteSpace=wrap;rounded=0;" parent="cNj1dF-utKpb4SikgFuL-53" vertex="1">
          <mxGeometry x="16.071428571428573" y="4.285714285714286" width="67.85714285714286" height="111.4285714285714" as="geometry" />
        </mxCell>
        <mxCell id="cNj1dF-utKpb4SikgFuL-54" value="&lt;font style=&quot;font-size: 44px;&quot;&gt;&amp;nbsp; Word2&lt;/font&gt;" style="rounded=1;whiteSpace=wrap;html=1;align=left;" parent="1" vertex="1">
          <mxGeometry x="1288" y="130" width="315" height="180" as="geometry" />
        </mxCell>
        <mxCell id="cNj1dF-utKpb4SikgFuL-55" value="" style="group" parent="1" vertex="1" connectable="0">
          <mxGeometry x="1483" y="160" width="100" height="120" as="geometry" />
        </mxCell>
        <mxCell id="cNj1dF-utKpb4SikgFuL-56" value="" style="rounded=1;whiteSpace=wrap;html=1;fillColor=#000000;strokeColor=#FFFFFF;" parent="cNj1dF-utKpb4SikgFuL-55" vertex="1">
          <mxGeometry width="100" height="120" as="geometry" />
        </mxCell>
        <mxCell id="cNj1dF-utKpb4SikgFuL-57" value="&lt;font style=&quot;font-size: 40px;&quot; color=&quot;#ffffff&quot;&gt;33&lt;/font&gt;" style="text;html=1;align=center;verticalAlign=middle;whiteSpace=wrap;rounded=0;" parent="cNj1dF-utKpb4SikgFuL-55" vertex="1">
          <mxGeometry x="16.071428571428573" y="4.285714285714286" width="67.85714285714286" height="111.4285714285714" as="geometry" />
        </mxCell>
        <mxCell id="cNj1dF-utKpb4SikgFuL-58" value="&lt;font style=&quot;font-size: 44px;&quot;&gt;&amp;nbsp; Word3&lt;/font&gt;" style="rounded=1;whiteSpace=wrap;html=1;align=left;" parent="1" vertex="1">
          <mxGeometry x="1618" y="130" width="315" height="180" as="geometry" />
        </mxCell>
        <mxCell id="cNj1dF-utKpb4SikgFuL-59" value="" style="group" parent="1" vertex="1" connectable="0">
          <mxGeometry x="1813" y="160" width="100" height="120" as="geometry" />
        </mxCell>
        <mxCell id="cNj1dF-utKpb4SikgFuL-60" value="" style="rounded=1;whiteSpace=wrap;html=1;fillColor=#000000;strokeColor=#FFFFFF;" parent="cNj1dF-utKpb4SikgFuL-59" vertex="1">
          <mxGeometry width="100" height="120" as="geometry" />
        </mxCell>
        <mxCell id="cNj1dF-utKpb4SikgFuL-61" value="&lt;font style=&quot;font-size: 40px;&quot; color=&quot;#ffffff&quot;&gt;31&lt;/font&gt;" style="text;html=1;align=center;verticalAlign=middle;whiteSpace=wrap;rounded=0;" parent="cNj1dF-utKpb4SikgFuL-59" vertex="1">
          <mxGeometry x="16.071428571428573" y="4.285714285714286" width="67.85714285714286" height="111.4285714285714" as="geometry" />
        </mxCell>
        <mxCell id="cNj1dF-utKpb4SikgFuL-62" value="&lt;font style=&quot;font-size: 44px;&quot;&gt;&amp;nbsp; Word4&lt;/font&gt;" style="rounded=1;whiteSpace=wrap;html=1;align=left;" parent="1" vertex="1">
          <mxGeometry x="958" y="330" width="315" height="180" as="geometry" />
        </mxCell>
        <mxCell id="cNj1dF-utKpb4SikgFuL-63" value="" style="group" parent="1" vertex="1" connectable="0">
          <mxGeometry x="1145" y="360" width="100" height="120" as="geometry" />
        </mxCell>
        <mxCell id="cNj1dF-utKpb4SikgFuL-64" value="" style="rounded=1;whiteSpace=wrap;html=1;fillColor=#000000;strokeColor=#FFFFFF;" parent="cNj1dF-utKpb4SikgFuL-63" vertex="1">
          <mxGeometry width="100" height="120" as="geometry" />
        </mxCell>
        <mxCell id="cNj1dF-utKpb4SikgFuL-65" value="&lt;font style=&quot;font-size: 40px;&quot; color=&quot;#ffffff&quot;&gt;18&lt;/font&gt;" style="text;html=1;align=center;verticalAlign=middle;whiteSpace=wrap;rounded=0;" parent="cNj1dF-utKpb4SikgFuL-63" vertex="1">
          <mxGeometry x="16.071428571428573" y="4.285714285714286" width="67.85714285714286" height="111.4285714285714" as="geometry" />
        </mxCell>
        <mxCell id="cNj1dF-utKpb4SikgFuL-66" value="&lt;font style=&quot;font-size: 23px;&quot;&gt;Add word&lt;/font&gt;" style="rounded=1;whiteSpace=wrap;html=1;align=center;" parent="1" vertex="1">
          <mxGeometry x="1820" y="40" width="140" height="80" as="geometry" />
        </mxCell>
        <mxCell id="cNj1dF-utKpb4SikgFuL-67" value="" style="rounded=1;whiteSpace=wrap;html=1;strokeColor=none;" parent="1" vertex="1">
          <mxGeometry x="1159" y="60" width="270" height="45" as="geometry" />
        </mxCell>
        <mxCell id="Sul2ZSIJXjJHA9fGG1rr-14" value="&lt;span style=&quot;font-size: 35px;&quot;&gt;Now&lt;/span&gt;" style="text;html=1;align=center;verticalAlign=middle;whiteSpace=wrap;rounded=0;" parent="1" vertex="1">
          <mxGeometry x="1185.6599999999999" y="47.5" width="224.34" height="70" as="geometry" />
        </mxCell>
        <mxCell id="cNj1dF-utKpb4SikgFuL-68" value="" style="rounded=1;whiteSpace=wrap;html=1;strokeColor=#FFFFFF;fillColor=#000000;strokeWidth=4;" parent="1" vertex="1">
          <mxGeometry x="1429" y="60" width="270" height="45" as="geometry" />
        </mxCell>
        <mxCell id="cNj1dF-utKpb4SikgFuL-69" value="&lt;font color=&quot;#ffffff&quot;&gt;&lt;span style=&quot;font-size: 35px;&quot;&gt;Already&lt;/span&gt;&lt;/font&gt;" style="text;html=1;align=center;verticalAlign=middle;whiteSpace=wrap;rounded=0;" parent="1" vertex="1">
          <mxGeometry x="1455.66" y="47.5" width="224.34" height="70" as="geometry" />
        </mxCell>
        <mxCell id="__Z4Ggr5JILWSUv6VxXm-1" value="&lt;span style=&quot;font-size: 44px;&quot;&gt;Translation&lt;/span&gt;" style="rounded=1;whiteSpace=wrap;html=1;align=center;" parent="1" vertex="1">
          <mxGeometry x="590" y="334" width="293" height="167.43" as="geometry" />
        </mxCell>
        <mxCell id="__Z4Ggr5JILWSUv6VxXm-2" value="" style="rounded=0;whiteSpace=wrap;html=1;fillColor=#000000;strokeColor=#6D1F00;fontColor=#ffffff;" parent="1" vertex="1">
          <mxGeometry x="2030" y="-50" width="1070" height="1210" as="geometry" />
        </mxCell>
        <mxCell id="__Z4Ggr5JILWSUv6VxXm-3" value="&lt;font style=&quot;font-size: 46px;&quot; color=&quot;#ffffff&quot;&gt;YourEng.&lt;/font&gt;" style="text;html=1;align=center;verticalAlign=middle;whiteSpace=wrap;rounded=0;fontSize=46;" parent="1" vertex="1">
          <mxGeometry x="2050" y="-50" width="180" height="90" as="geometry" />
        </mxCell>
        <mxCell id="__Z4Ggr5JILWSUv6VxXm-4" value="" style="endArrow=none;html=1;rounded=0;fontColor=#FFFFFF;strokeColor=#FFFFFF;entryX=1.009;entryY=0.05;entryDx=0;entryDy=0;entryPerimeter=0;strokeWidth=3;" parent="1" edge="1">
          <mxGeometry width="50" height="50" relative="1" as="geometry">
            <mxPoint x="2030" y="30" as="sourcePoint" />
            <mxPoint x="3109.63" y="30.499999999999773" as="targetPoint" />
          </mxGeometry>
        </mxCell>
        <mxCell id="__Z4Ggr5JILWSUv6VxXm-6" value="&lt;font style=&quot;font-size: 22px;&quot;&gt;Sign out&lt;/font&gt;" style="rounded=1;whiteSpace=wrap;html=1;" parent="1" vertex="1">
          <mxGeometry x="2960" y="-30" width="120" height="40" as="geometry" />
        </mxCell>
        <mxCell id="__Z4Ggr5JILWSUv6VxXm-24" value="" style="rounded=1;whiteSpace=wrap;html=1;strokeColor=#FFFFFF;strokeWidth=4;fillColor=#000000;" parent="1" vertex="1">
          <mxGeometry x="2279" y="60" width="270" height="45" as="geometry" />
        </mxCell>
        <mxCell id="__Z4Ggr5JILWSUv6VxXm-25" value="&lt;span style=&quot;font-size: 35px;&quot;&gt;Now&lt;/span&gt;" style="text;html=1;align=center;verticalAlign=middle;whiteSpace=wrap;rounded=0;fontColor=#FFFFFF;" parent="1" vertex="1">
          <mxGeometry x="2305.66" y="47.5" width="224.34" height="70" as="geometry" />
        </mxCell>
        <mxCell id="__Z4Ggr5JILWSUv6VxXm-26" value="" style="rounded=1;whiteSpace=wrap;html=1;strokeColor=none;fillColor=#FFFFFF;strokeWidth=4;" parent="1" vertex="1">
          <mxGeometry x="2549" y="60" width="270" height="45" as="geometry" />
        </mxCell>
        <mxCell id="__Z4Ggr5JILWSUv6VxXm-27" value="&lt;font&gt;&lt;span style=&quot;font-size: 35px;&quot;&gt;Already&lt;/span&gt;&lt;/font&gt;" style="text;html=1;align=center;verticalAlign=middle;whiteSpace=wrap;rounded=0;fontColor=#000000;" parent="1" vertex="1">
          <mxGeometry x="2575.66" y="47.5" width="224.34" height="70" as="geometry" />
        </mxCell>
        <mxCell id="__Z4Ggr5JILWSUv6VxXm-36" value="" style="group" parent="1" vertex="1" connectable="0">
          <mxGeometry x="2050" y="290" width="1082" height="190" as="geometry" />
        </mxCell>
        <mxCell id="__Z4Ggr5JILWSUv6VxXm-11" value="&lt;font style=&quot;font-size: 44px;&quot;&gt;Word2&lt;/font&gt;" style="rounded=1;whiteSpace=wrap;html=1;align=center;" parent="__Z4Ggr5JILWSUv6VxXm-36" vertex="1">
          <mxGeometry x="12.00421589837466" width="1013.7452725631562" height="121.27428571428571" as="geometry" />
        </mxCell>
        <mxCell id="__Z4Ggr5JILWSUv6VxXm-12" value="" style="group" parent="__Z4Ggr5JILWSUv6VxXm-36" vertex="1" connectable="0">
          <mxGeometry x="853.0295586202168" y="13.571428571428573" width="86.53923058465968" height="54.28571428571429" as="geometry" />
        </mxCell>
        <mxCell id="__Z4Ggr5JILWSUv6VxXm-28" value="" style="group" parent="__Z4Ggr5JILWSUv6VxXm-12" vertex="1" connectable="0">
          <mxGeometry width="86.53923058465968" height="45.23809523809525" as="geometry" />
        </mxCell>
        <mxCell id="__Z4Ggr5JILWSUv6VxXm-30" value="" style="group" parent="__Z4Ggr5JILWSUv6VxXm-28" vertex="1" connectable="0">
          <mxGeometry x="37.08824167913986" width="86.53923058465968" height="45.23809523809525" as="geometry" />
        </mxCell>
        <mxCell id="__Z4Ggr5JILWSUv6VxXm-13" value="" style="rounded=1;whiteSpace=wrap;html=1;fillColor=#000000;strokeColor=#FFFFFF;" parent="__Z4Ggr5JILWSUv6VxXm-30" vertex="1">
          <mxGeometry width="86.53923058465968" height="45.23809523809525" as="geometry" />
        </mxCell>
        <mxCell id="__Z4Ggr5JILWSUv6VxXm-14" value="&lt;font style=&quot;font-size: 40px;&quot; color=&quot;#ffffff&quot;&gt;33&lt;/font&gt;" style="text;html=1;align=center;verticalAlign=middle;whiteSpace=wrap;rounded=0;" parent="__Z4Ggr5JILWSUv6VxXm-30" vertex="1">
          <mxGeometry x="13.90809062967745" y="1.6156462585034013" width="58.72304932530479" height="42.00680272108843" as="geometry" />
        </mxCell>
        <mxCell id="__Z4Ggr5JILWSUv6VxXm-31" value="" style="group" parent="__Z4Ggr5JILWSUv6VxXm-36" vertex="1" connectable="0">
          <mxGeometry x="853.0295586202168" y="61.07142857142858" width="228.9704413797831" height="128.92857142857144" as="geometry" />
        </mxCell>
        <mxCell id="__Z4Ggr5JILWSUv6VxXm-32" value="" style="group" parent="__Z4Ggr5JILWSUv6VxXm-31" vertex="1" connectable="0">
          <mxGeometry width="228.9704413797831" height="128.92857142857144" as="geometry" />
        </mxCell>
        <mxCell id="__Z4Ggr5JILWSUv6VxXm-33" value="" style="group" parent="__Z4Ggr5JILWSUv6VxXm-32" vertex="1" connectable="0">
          <mxGeometry x="37.088241679139855" width="191.8821997006432" height="128.92857142857144" as="geometry" />
        </mxCell>
        <mxCell id="__Z4Ggr5JILWSUv6VxXm-34" value="" style="rounded=1;whiteSpace=wrap;html=1;fillColor=#000000;strokeColor=#FFFFFF;" parent="__Z4Ggr5JILWSUv6VxXm-33" vertex="1">
          <mxGeometry width="86.53923058465966" height="45.23809523809524" as="geometry" />
        </mxCell>
        <mxCell id="__Z4Ggr5JILWSUv6VxXm-35" value="&lt;font style=&quot;font-size: 45px;&quot;&gt;←&lt;/font&gt;" style="text;html=1;align=center;verticalAlign=middle;whiteSpace=wrap;rounded=0;fontColor=#FFFFFF;fontSize=45;" parent="__Z4Ggr5JILWSUv6VxXm-33" vertex="1">
          <mxGeometry x="-44.481164520515065" y="-42.39714285714285" width="177.97410907096577" height="127.31357142857144" as="geometry" />
        </mxCell>
        <mxCell id="__Z4Ggr5JILWSUv6VxXm-37" value="" style="group" parent="1" vertex="1" connectable="0">
          <mxGeometry x="2059" y="150" width="1082" height="190" as="geometry" />
        </mxCell>
        <mxCell id="__Z4Ggr5JILWSUv6VxXm-38" value="&lt;font style=&quot;font-size: 44px;&quot;&gt;Word4&lt;/font&gt;" style="rounded=1;whiteSpace=wrap;html=1;align=center;" parent="__Z4Ggr5JILWSUv6VxXm-37" vertex="1">
          <mxGeometry width="1013.7452725631563" height="121.27428571428572" as="geometry" />
        </mxCell>
        <mxCell id="__Z4Ggr5JILWSUv6VxXm-39" value="" style="group" parent="__Z4Ggr5JILWSUv6VxXm-37" vertex="1" connectable="0">
          <mxGeometry x="843.0295586202169" y="13.571428571428573" width="86.53923058465969" height="54.28571428571429" as="geometry" />
        </mxCell>
        <mxCell id="__Z4Ggr5JILWSUv6VxXm-40" value="" style="group" parent="__Z4Ggr5JILWSUv6VxXm-39" vertex="1" connectable="0">
          <mxGeometry width="86.53923058465969" height="45.23809523809525" as="geometry" />
        </mxCell>
        <mxCell id="__Z4Ggr5JILWSUv6VxXm-41" value="" style="group" parent="__Z4Ggr5JILWSUv6VxXm-40" vertex="1" connectable="0">
          <mxGeometry x="37.08824167913986" width="86.53923058465969" height="45.23809523809525" as="geometry" />
        </mxCell>
        <mxCell id="__Z4Ggr5JILWSUv6VxXm-42" value="" style="rounded=1;whiteSpace=wrap;html=1;fillColor=#000000;strokeColor=#FFFFFF;" parent="__Z4Ggr5JILWSUv6VxXm-41" vertex="1">
          <mxGeometry width="86.53923058465969" height="45.23809523809525" as="geometry" />
        </mxCell>
        <mxCell id="__Z4Ggr5JILWSUv6VxXm-43" value="&lt;font color=&quot;#ffffff&quot;&gt;&lt;span style=&quot;font-size: 40px;&quot;&gt;63&lt;/span&gt;&lt;/font&gt;" style="text;html=1;align=center;verticalAlign=middle;whiteSpace=wrap;rounded=0;" parent="__Z4Ggr5JILWSUv6VxXm-41" vertex="1">
          <mxGeometry x="13.908090629677451" y="1.6156462585034015" width="58.7230493253048" height="42.00680272108843" as="geometry" />
        </mxCell>
        <mxCell id="__Z4Ggr5JILWSUv6VxXm-44" value="" style="group" parent="__Z4Ggr5JILWSUv6VxXm-37" vertex="1" connectable="0">
          <mxGeometry x="843.0295586202169" y="61.07142857142857" width="228.97044137978313" height="128.92857142857144" as="geometry" />
        </mxCell>
        <mxCell id="__Z4Ggr5JILWSUv6VxXm-45" value="" style="group" parent="__Z4Ggr5JILWSUv6VxXm-44" vertex="1" connectable="0">
          <mxGeometry width="228.97044137978313" height="128.92857142857144" as="geometry" />
        </mxCell>
        <mxCell id="__Z4Ggr5JILWSUv6VxXm-46" value="" style="group" parent="__Z4Ggr5JILWSUv6VxXm-45" vertex="1" connectable="0">
          <mxGeometry x="37.088241679139855" width="191.88219970064324" height="128.92857142857144" as="geometry" />
        </mxCell>
        <mxCell id="__Z4Ggr5JILWSUv6VxXm-47" value="" style="rounded=1;whiteSpace=wrap;html=1;fillColor=#000000;strokeColor=#FFFFFF;" parent="__Z4Ggr5JILWSUv6VxXm-46" vertex="1">
          <mxGeometry width="86.53923058465968" height="45.23809523809524" as="geometry" />
        </mxCell>
        <mxCell id="__Z4Ggr5JILWSUv6VxXm-48" value="&lt;font style=&quot;font-size: 45px;&quot;&gt;←&lt;/font&gt;" style="text;html=1;align=center;verticalAlign=middle;whiteSpace=wrap;rounded=0;fontColor=#FFFFFF;fontSize=45;" parent="__Z4Ggr5JILWSUv6VxXm-46" vertex="1">
          <mxGeometry x="-44.48116452051507" y="-42.39714285714285" width="177.9741090709658" height="127.31357142857144" as="geometry" />
        </mxCell>
        <mxCell id="__Z4Ggr5JILWSUv6VxXm-49" value="" style="group" parent="1" vertex="1" connectable="0">
          <mxGeometry x="2055" y="585.0000000000001" width="1082" height="190" as="geometry" />
        </mxCell>
        <mxCell id="__Z4Ggr5JILWSUv6VxXm-50" value="&lt;font style=&quot;font-size: 44px;&quot;&gt;Word1&lt;/font&gt;" style="rounded=1;whiteSpace=wrap;html=1;align=center;" parent="__Z4Ggr5JILWSUv6VxXm-49" vertex="1">
          <mxGeometry x="12.00421589837466" width="1013.7452725631562" height="121.27428571428571" as="geometry" />
        </mxCell>
        <mxCell id="__Z4Ggr5JILWSUv6VxXm-51" value="" style="group" parent="__Z4Ggr5JILWSUv6VxXm-49" vertex="1" connectable="0">
          <mxGeometry x="843.0295586202168" y="13.571428571428573" width="86.53923058465968" height="54.28571428571429" as="geometry" />
        </mxCell>
        <mxCell id="__Z4Ggr5JILWSUv6VxXm-52" value="" style="group" parent="__Z4Ggr5JILWSUv6VxXm-51" vertex="1" connectable="0">
          <mxGeometry width="86.53923058465968" height="45.23809523809525" as="geometry" />
        </mxCell>
        <mxCell id="__Z4Ggr5JILWSUv6VxXm-53" value="" style="group" parent="__Z4Ggr5JILWSUv6VxXm-52" vertex="1" connectable="0">
          <mxGeometry x="37.08824167913986" width="86.53923058465968" height="45.23809523809525" as="geometry" />
        </mxCell>
        <mxCell id="__Z4Ggr5JILWSUv6VxXm-54" value="" style="rounded=1;whiteSpace=wrap;html=1;fillColor=#000000;strokeColor=#FFFFFF;" parent="__Z4Ggr5JILWSUv6VxXm-53" vertex="1">
          <mxGeometry width="86.53923058465968" height="45.23809523809525" as="geometry" />
        </mxCell>
        <mxCell id="__Z4Ggr5JILWSUv6VxXm-55" value="&lt;font color=&quot;#ffffff&quot;&gt;&lt;span style=&quot;font-size: 40px;&quot;&gt;22&lt;/span&gt;&lt;/font&gt;" style="text;html=1;align=center;verticalAlign=middle;whiteSpace=wrap;rounded=0;" parent="__Z4Ggr5JILWSUv6VxXm-53" vertex="1">
          <mxGeometry x="13.90809062967745" y="1.6156462585034013" width="58.72304932530479" height="42.00680272108843" as="geometry" />
        </mxCell>
        <mxCell id="__Z4Ggr5JILWSUv6VxXm-56" value="" style="group" parent="__Z4Ggr5JILWSUv6VxXm-49" vertex="1" connectable="0">
          <mxGeometry x="843.0295586202168" y="61.07142857142858" width="228.9704413797831" height="128.92857142857144" as="geometry" />
        </mxCell>
        <mxCell id="__Z4Ggr5JILWSUv6VxXm-57" value="" style="group" parent="__Z4Ggr5JILWSUv6VxXm-56" vertex="1" connectable="0">
          <mxGeometry width="228.9704413797831" height="128.92857142857144" as="geometry" />
        </mxCell>
        <mxCell id="__Z4Ggr5JILWSUv6VxXm-58" value="" style="group" parent="__Z4Ggr5JILWSUv6VxXm-57" vertex="1" connectable="0">
          <mxGeometry x="37.088241679139855" width="191.8821997006432" height="128.92857142857144" as="geometry" />
        </mxCell>
        <mxCell id="__Z4Ggr5JILWSUv6VxXm-59" value="" style="rounded=1;whiteSpace=wrap;html=1;fillColor=#000000;strokeColor=#FFFFFF;" parent="__Z4Ggr5JILWSUv6VxXm-58" vertex="1">
          <mxGeometry width="86.53923058465966" height="45.23809523809524" as="geometry" />
        </mxCell>
        <mxCell id="__Z4Ggr5JILWSUv6VxXm-60" value="&lt;font style=&quot;font-size: 45px;&quot;&gt;←&lt;/font&gt;" style="text;html=1;align=center;verticalAlign=middle;whiteSpace=wrap;rounded=0;fontColor=#FFFFFF;fontSize=45;" parent="__Z4Ggr5JILWSUv6VxXm-58" vertex="1">
          <mxGeometry x="-44.481164520515065" y="-42.39714285714285" width="177.97410907096577" height="127.31357142857144" as="geometry" />
        </mxCell>
        <mxCell id="__Z4Ggr5JILWSUv6VxXm-61" value="" style="group" parent="1" vertex="1" connectable="0">
          <mxGeometry x="2066" y="440" width="1082" height="190" as="geometry" />
        </mxCell>
        <mxCell id="__Z4Ggr5JILWSUv6VxXm-62" value="&lt;font style=&quot;font-size: 44px;&quot;&gt;Word3&lt;/font&gt;" style="rounded=1;whiteSpace=wrap;html=1;align=center;" parent="__Z4Ggr5JILWSUv6VxXm-61" vertex="1">
          <mxGeometry width="1013.7452725631562" height="121.27428571428571" as="geometry" />
        </mxCell>
        <mxCell id="__Z4Ggr5JILWSUv6VxXm-63" value="" style="group" parent="__Z4Ggr5JILWSUv6VxXm-61" vertex="1" connectable="0">
          <mxGeometry x="833.0295586202168" y="13.571428571428573" width="86.53923058465968" height="54.28571428571429" as="geometry" />
        </mxCell>
        <mxCell id="__Z4Ggr5JILWSUv6VxXm-64" value="" style="group" parent="__Z4Ggr5JILWSUv6VxXm-63" vertex="1" connectable="0">
          <mxGeometry width="86.53923058465968" height="45.23809523809525" as="geometry" />
        </mxCell>
        <mxCell id="__Z4Ggr5JILWSUv6VxXm-65" value="" style="group" parent="__Z4Ggr5JILWSUv6VxXm-64" vertex="1" connectable="0">
          <mxGeometry x="37.08824167913986" width="86.53923058465968" height="45.23809523809525" as="geometry" />
        </mxCell>
        <mxCell id="__Z4Ggr5JILWSUv6VxXm-66" value="" style="rounded=1;whiteSpace=wrap;html=1;fillColor=#000000;strokeColor=#FFFFFF;" parent="__Z4Ggr5JILWSUv6VxXm-65" vertex="1">
          <mxGeometry width="86.53923058465968" height="45.23809523809525" as="geometry" />
        </mxCell>
        <mxCell id="__Z4Ggr5JILWSUv6VxXm-67" value="&lt;font color=&quot;#ffffff&quot;&gt;&lt;span style=&quot;font-size: 40px;&quot;&gt;31&lt;/span&gt;&lt;/font&gt;" style="text;html=1;align=center;verticalAlign=middle;whiteSpace=wrap;rounded=0;" parent="__Z4Ggr5JILWSUv6VxXm-65" vertex="1">
          <mxGeometry x="13.90809062967745" y="1.6156462585034013" width="58.72304932530479" height="42.00680272108843" as="geometry" />
        </mxCell>
        <mxCell id="__Z4Ggr5JILWSUv6VxXm-68" value="" style="group" parent="__Z4Ggr5JILWSUv6VxXm-61" vertex="1" connectable="0">
          <mxGeometry x="833.0295586202168" y="61.07142857142858" width="228.9704413797831" height="128.92857142857144" as="geometry" />
        </mxCell>
        <mxCell id="__Z4Ggr5JILWSUv6VxXm-69" value="" style="group" parent="__Z4Ggr5JILWSUv6VxXm-68" vertex="1" connectable="0">
          <mxGeometry width="228.9704413797831" height="128.92857142857144" as="geometry" />
        </mxCell>
        <mxCell id="__Z4Ggr5JILWSUv6VxXm-70" value="" style="group" parent="__Z4Ggr5JILWSUv6VxXm-69" vertex="1" connectable="0">
          <mxGeometry x="37.088241679139855" width="191.8821997006432" height="128.92857142857144" as="geometry" />
        </mxCell>
        <mxCell id="__Z4Ggr5JILWSUv6VxXm-71" value="" style="rounded=1;whiteSpace=wrap;html=1;fillColor=#000000;strokeColor=#FFFFFF;" parent="__Z4Ggr5JILWSUv6VxXm-70" vertex="1">
          <mxGeometry width="86.53923058465966" height="45.23809523809524" as="geometry" />
        </mxCell>
        <mxCell id="__Z4Ggr5JILWSUv6VxXm-72" value="&lt;font style=&quot;font-size: 45px;&quot;&gt;←&lt;/font&gt;" style="text;html=1;align=center;verticalAlign=middle;whiteSpace=wrap;rounded=0;fontColor=#FFFFFF;fontSize=45;" parent="__Z4Ggr5JILWSUv6VxXm-70" vertex="1">
          <mxGeometry x="-44.481164520515065" y="-42.39714285714285" width="177.97410907096577" height="127.31357142857144" as="geometry" />
        </mxCell>
        <mxCell id="771GOue70q3jVIo_l1kY-1" value="" style="rounded=0;whiteSpace=wrap;html=1;fillColor=#000000;strokeColor=#6D1F00;fontColor=#ffffff;" parent="1" vertex="1">
          <mxGeometry x="910" y="-1370" width="1070" height="1210" as="geometry" />
        </mxCell>
        <mxCell id="771GOue70q3jVIo_l1kY-2" value="&lt;font style=&quot;font-size: 46px;&quot; color=&quot;#ffffff&quot;&gt;YourEng.&lt;/font&gt;" style="text;html=1;align=center;verticalAlign=middle;whiteSpace=wrap;rounded=0;fontSize=46;" parent="1" vertex="1">
          <mxGeometry x="930" y="-1370" width="180" height="90" as="geometry" />
        </mxCell>
        <mxCell id="771GOue70q3jVIo_l1kY-4" value="&lt;font style=&quot;font-size: 22px;&quot;&gt;Sign in&lt;/font&gt;" style="rounded=1;whiteSpace=wrap;html=1;" parent="1" vertex="1">
          <mxGeometry x="1830" y="-1354.67" width="140" height="46.67" as="geometry" />
        </mxCell>
        <mxCell id="771GOue70q3jVIo_l1kY-26" value="" style="endArrow=none;html=1;rounded=0;fontColor=#FFFFFF;strokeColor=#FFFFFF;entryX=1.009;entryY=0.05;entryDx=0;entryDy=0;entryPerimeter=0;strokeWidth=3;" parent="1" edge="1">
          <mxGeometry width="50" height="50" relative="1" as="geometry">
            <mxPoint x="910" y="-1290" as="sourcePoint" />
            <mxPoint x="1989.63" y="-1289.5000000000002" as="targetPoint" />
          </mxGeometry>
        </mxCell>
        <mxCell id="771GOue70q3jVIo_l1kY-27" value="" style="rounded=0;whiteSpace=wrap;html=1;rotation=-10;strokeColor=none;" parent="1" vertex="1">
          <mxGeometry x="830" y="-1170" width="1230" height="250" as="geometry" />
        </mxCell>
        <mxCell id="771GOue70q3jVIo_l1kY-28" value="&lt;font style=&quot;font-size: 27px;&quot;&gt;YourEng. - is your tool to help you learn English. Build your word library and enjoy the convenience of word learning&lt;/font&gt;" style="text;html=1;align=center;verticalAlign=middle;whiteSpace=wrap;rounded=0;" parent="1" vertex="1">
          <mxGeometry x="1122" y="-1170" width="698" height="230" as="geometry" />
        </mxCell>
        <mxCell id="771GOue70q3jVIo_l1kY-29" value="" style="rounded=0;whiteSpace=wrap;html=1;strokeColor=none;" parent="1" vertex="1">
          <mxGeometry x="910" y="-270" width="1070" height="110" as="geometry" />
        </mxCell>
        <mxCell id="771GOue70q3jVIo_l1kY-30" style="edgeStyle=orthogonalEdgeStyle;rounded=0;orthogonalLoop=1;jettySize=auto;html=1;exitX=0.5;exitY=1;exitDx=0;exitDy=0;" parent="1" source="771GOue70q3jVIo_l1kY-28" target="771GOue70q3jVIo_l1kY-28" edge="1">
          <mxGeometry relative="1" as="geometry" />
        </mxCell>
        <mxCell id="771GOue70q3jVIo_l1kY-3" value="&lt;font style=&quot;font-size: 22px;&quot;&gt;Log in&lt;/font&gt;" style="rounded=1;whiteSpace=wrap;html=1;fillColor=#000000;fontColor=#FFFFFF;" parent="1" vertex="1">
          <mxGeometry x="1410" y="-993" width="120" height="40" as="geometry" />
        </mxCell>
        <mxCell id="771GOue70q3jVIo_l1kY-31" value="&lt;font style=&quot;font-size: 24px;&quot;&gt;Nickname&lt;/font&gt;" style="text;html=1;align=center;verticalAlign=middle;whiteSpace=wrap;rounded=0;fontColor=#FFFFFF;" parent="1" vertex="1">
          <mxGeometry x="1696" y="-46" width="148" height="74" as="geometry" />
        </mxCell>
        <mxCell id="771GOue70q3jVIo_l1kY-35" value="&lt;font style=&quot;font-size: 21px;&quot;&gt;Now -&amp;nbsp;these are the words you want to learn now&lt;br&gt;Already -&amp;nbsp;these are words you have already learned&lt;br&gt;&lt;/font&gt;" style="text;html=1;align=left;verticalAlign=middle;whiteSpace=wrap;rounded=0;" parent="1" vertex="1">
          <mxGeometry x="940" y="-250" width="540" height="70" as="geometry" />
        </mxCell>
        <mxCell id="771GOue70q3jVIo_l1kY-37" value="" style="shape=image;verticalLabelPosition=bottom;labelBackgroundColor=default;verticalAlign=top;aspect=fixed;imageAspect=0;image=data:image/png,iVBORw0KGgoAAAANSUhEUgAAADIAAAAyCAYAAAAeP4ixAAAACXBIWXMAAAsTAAALEwEAmpwYAAADYklEQVR4nO2Zy04UQRSGe4GK4TouYauCcSGK7lTiTmIi+gSEiLyAF3QNsiUYlhJ8AS+JKxm87tS9gG4U3CoKiCv5TMlfsTKZ6a7u6Z4ek/mTSTrTVaf+03Xq3CoIGmggfwA9wDiwCCwBW6QHI8vILAI3gcNZKHASeEbtsQj0p6HAHmAW2JHgr8A94KJ2pyWVL7W7VotkDgFzWgutfRdoSiq4ADyXsJ/ABNCeFnGP9duBSWDb2Z3OJDthTemLMa3MGEdzOQZ8EpdXwN44k405GawCXZky9ePTBayJ00ycg70jczoe1AmAEzKz3+bZZ4I1qYmgzgDcEbdi1MAexzvV7GA761/QmTRmNFjmfQfwTRwPhQkywc5gLmvSFdZfc2LIaoUx83p/I0yQiaoGQ1kSrlKRy3q/ECZoRYMSpweKPyPAY2BZqceWnh/pXaHC3EEpY7zl+QjzXw4jsaFBbQkU2A/cBr57pB7rwC2gOcE6bZKxETboLxL6+XcO0afAqE1j9OvVfwvOuLdJ4hRRPJMoIiVW7XYDpz3mnHHMOHbQJW1FZE52J17EyYV0ll5q7ps4ZkYGipgzgeqIeAndP2XszoznoohI2IMdaU4hcgYcB1DIQ5ERe7Bj8I6KX8N5KGJigsGVGJwryboqWQ/yUMTadk8MzpVk9VqvF+SgyKaGt8bgXElWq2Rt/u+KmLLW4Ifn+IZphR320aBKAGN5HvaRyHTaE+qQ5OZ+CwpiBmdj8C6Vc04yjKzOmitSkqKs+EblMh/jQ2TFVwNFmpWKowTQWxngAPC6LpLGMmm8+boDgZ85faybNL5EGfNVLYryREcU7Fr1POYcbLsTmRRWG1WUus3qwlgHEIZ1XR3sy6rUXUmh+dBp3CjwUHXKpn5L+m84Se0St/mQazvIB047qHL5oO3OrUHnA+C+OF6r25ZpFLxbphpsvcpkUGcApiLNyhncr2uFba/2fY3A7nXHL10r9PlOMnd2qH3ZnTnLaD7dTl94Os7EJsfETJv/VKZMw7n0AZ+dQNuUJB5YZbZ1ydKRGePyB3tK5oRarcnij3ZmRnaJPIa5n7ikhkHVZa6zlkljehUn5h3vZNaeTnw9XbLIUeAJtUcxE4djfLepG7TNNv1IC0bWe3XyrwMHU1eggQaC2PgDcoKh50PBZGwAAAAASUVORK5CYII=;" parent="1" vertex="1">
          <mxGeometry x="1920" y="-240" width="50" height="50" as="geometry" />
        </mxCell>
        <mxCell id="771GOue70q3jVIo_l1kY-38" value="" style="shape=image;verticalLabelPosition=bottom;labelBackgroundColor=default;verticalAlign=top;aspect=fixed;imageAspect=0;image=data:image/png,iVBORw0KGgoAAAANSUhEUgAAADIAAAAyCAYAAAAeP4ixAAAACXBIWXMAAAsTAAALEwEAmpwYAAAFJUlEQVR4nO2ZWYwVVRCGLzAoKi7jRgAVo2iIKGiQxajRiEHRkLiNC7i8oGhURFFjxAcVWSQal5AIRGOiaFwSEXwxLiFq1IBLBkRBBx2NCQIyiGNAHWA+U/B35kx7uvt03x71Gv6nmdt16tTfp6pOVXWlsgd78N8EUA+cBdwMzAeWAo3A98AWOvCLfrNnS4AngduA0cCh/5bxRwL3AcuAnVSPduAL4HHgtH+CwMnAImCHY8Q24GNgAXArcA5wAnA40M1ZexAwADgFuAiYAjwFfAD8FiP2JXCNu74sAr2BuXpzhj+AF4ALgH1K0N8TOAN4GFjnELITH1IWCXuLK6V4h+KgTynK/fvV6TR+1J52WhdXq/QIoFkKLUiHlmZx9t77Ac9o7+3AeUUV7QV8IkXvmOLSrQ2zY7qT9QYUUXC/E3i9CxrxCLAC2KSk8C3wplJ130Ad3YBXZctLeQ04TL5pwT2sIAkzoCUl5Rqx2cABAbr6OfYMzmPEVG22KMV/Z+iC+wloSJDrC5wEHGLZDTgGGA+85tw/q4HjAmyaK/k5eYjYvWAY53l2oNzNRRswJkHX60CrTqBJWW+E7qTPtH5TFhlglGS/CSWxrwzb7osNYF6Cq/waz/lyr7UeWXOR5+XCi52T2T/Frh6Oe2WXNMCpUZAnPP85xe/tDfeIye+tC9Vca4iykJ2QYbnIfK7/Z2TYZnWc4cIQInYZGZYkPN9MOiZ51kRlyLtmhGJljeTtZIbpTW+10ibFtlla80AIkZkSfizheZQKk7DRSg4PERd2Ksc6rjJCFbHhhhTbrtslAc+FEFko4VsSno8hHb9bnCVksLtUp6GTscyH4i4y0usJ0mElv2FpCJH3JDw24Xl3yxwJJP4ErszQf7dkzc2G6u+vgUH6e3XK2uMl0xRCxFKkYVCKzCQPifYk8p7LDQW8ZUgUG5bWDVtS1h4smZYQIhsknBZ0vZzqNEJjpvLOMfO+pVsndZvrGdalrIvkW0M2sYsLn5/H5BpiRKyP6B5KxilM1+rSHC49yzJeoGFbiPKodMg0Cng7RubSPEQ87fNGK1YzGrBdsRii0LKOoVdgv+IWhj9knWQ1IGeMRBdefaDyuIvNL8NoH4CjtUdziPB3Eh6YKdyxZk6MzPRKF4DdJY5hRYhwVM+MzrGB3S2vxMi87Os1NEZq1QuzdqEuxz5jpfutEOFnJTwxdAMno7wRI2Mp+kbLTpK5ib/jo9AWlt2dpWFeiPAdRX1d6dRXi6339DAuNodMSoCnJT85xJiREl6Vl4jTN8x2ZmChMPnrM3R/JdmRoW91qxT3L0JGeq7QjZ0H61P0DXSmKT1DjbBANUwtSkR6jvJcmmloTNF1r2QW5jFgnBY1BbNP1mXt7rWe2syHy1Omj3bZkmtQJz9fGRxYYTqt0p2W0Cq3p7W5wETJrck92AbO12IrIoeXQcYZJU0GPpXuD4EzM9yzRbY0FN30iSgIgdOrIVBw//6arhgWV6Oozuml29Sa9ivV2uRK4SrHDZenjYryxMss515o06Tw3NIs71xNT3HiE/Uq9WVuMio26jRMC3iz9o2xj0ZAgzX6ORuYANwOPKp0HxWrEZo1kCj3q1XsrVnhl9gXAPdoDJoXrSJ1WVSfdTminT2/P+QYtlN11AZ9UlilbGUV9os2OwPu1OmcmLdV7jIiDgmbG19SqQUQIwI86HxnHF+pFeAQcT6PGYmrK7UEOjDTITGhUmugM2rvJCL8L0gYnKF1bWSnSo3gL8yFJ8d+Y38aAAAAAElFTkSuQmCC;" parent="1" vertex="1">
          <mxGeometry x="1854" y="-240" width="50" height="50" as="geometry" />
        </mxCell>
        <mxCell id="771GOue70q3jVIo_l1kY-39" value="" style="rounded=0;whiteSpace=wrap;html=1;strokeColor=none;" parent="1" vertex="1">
          <mxGeometry x="910" y="1050" width="1070" height="110" as="geometry" />
        </mxCell>
        <mxCell id="771GOue70q3jVIo_l1kY-40" value="&lt;font style=&quot;font-size: 21px;&quot;&gt;Now -&amp;nbsp;these are the words you want to learn now&lt;br&gt;Already -&amp;nbsp;these are words you have already learned&lt;br&gt;&lt;/font&gt;" style="text;html=1;align=left;verticalAlign=middle;whiteSpace=wrap;rounded=0;" parent="1" vertex="1">
          <mxGeometry x="940" y="1070" width="540" height="70" as="geometry" />
        </mxCell>
        <mxCell id="771GOue70q3jVIo_l1kY-41" value="" style="shape=image;verticalLabelPosition=bottom;labelBackgroundColor=default;verticalAlign=top;aspect=fixed;imageAspect=0;image=data:image/png,iVBORw0KGgoAAAANSUhEUgAAADIAAAAyCAYAAAAeP4ixAAAACXBIWXMAAAsTAAALEwEAmpwYAAADYklEQVR4nO2Zy04UQRSGe4GK4TouYauCcSGK7lTiTmIi+gSEiLyAF3QNsiUYlhJ8AS+JKxm87tS9gG4U3CoKiCv5TMlfsTKZ6a7u6Z4ek/mTSTrTVaf+03Xq3CoIGmggfwA9wDiwCCwBW6QHI8vILAI3gcNZKHASeEbtsQj0p6HAHmAW2JHgr8A94KJ2pyWVL7W7VotkDgFzWgutfRdoSiq4ADyXsJ/ABNCeFnGP9duBSWDb2Z3OJDthTemLMa3MGEdzOQZ8EpdXwN44k405GawCXZky9ePTBayJ00ycg70jczoe1AmAEzKz3+bZZ4I1qYmgzgDcEbdi1MAexzvV7GA761/QmTRmNFjmfQfwTRwPhQkywc5gLmvSFdZfc2LIaoUx83p/I0yQiaoGQ1kSrlKRy3q/ECZoRYMSpweKPyPAY2BZqceWnh/pXaHC3EEpY7zl+QjzXw4jsaFBbQkU2A/cBr57pB7rwC2gOcE6bZKxETboLxL6+XcO0afAqE1j9OvVfwvOuLdJ4hRRPJMoIiVW7XYDpz3mnHHMOHbQJW1FZE52J17EyYV0ll5q7ps4ZkYGipgzgeqIeAndP2XszoznoohI2IMdaU4hcgYcB1DIQ5ERe7Bj8I6KX8N5KGJigsGVGJwryboqWQ/yUMTadk8MzpVk9VqvF+SgyKaGt8bgXElWq2Rt/u+KmLLW4Ifn+IZphR320aBKAGN5HvaRyHTaE+qQ5OZ+CwpiBmdj8C6Vc04yjKzOmitSkqKs+EblMh/jQ2TFVwNFmpWKowTQWxngAPC6LpLGMmm8+boDgZ85faybNL5EGfNVLYryREcU7Fr1POYcbLsTmRRWG1WUus3qwlgHEIZ1XR3sy6rUXUmh+dBp3CjwUHXKpn5L+m84Se0St/mQazvIB047qHL5oO3OrUHnA+C+OF6r25ZpFLxbphpsvcpkUGcApiLNyhncr2uFba/2fY3A7nXHL10r9PlOMnd2qH3ZnTnLaD7dTl94Os7EJsfETJv/VKZMw7n0AZ+dQNuUJB5YZbZ1ydKRGePyB3tK5oRarcnij3ZmRnaJPIa5n7ikhkHVZa6zlkljehUn5h3vZNaeTnw9XbLIUeAJtUcxE4djfLepG7TNNv1IC0bWe3XyrwMHU1eggQaC2PgDcoKh50PBZGwAAAAASUVORK5CYII=;" parent="1" vertex="1">
          <mxGeometry x="1920" y="1080" width="50" height="50" as="geometry" />
        </mxCell>
        <mxCell id="771GOue70q3jVIo_l1kY-42" value="" style="shape=image;verticalLabelPosition=bottom;labelBackgroundColor=default;verticalAlign=top;aspect=fixed;imageAspect=0;image=data:image/png,iVBORw0KGgoAAAANSUhEUgAAADIAAAAyCAYAAAAeP4ixAAAACXBIWXMAAAsTAAALEwEAmpwYAAAFJUlEQVR4nO2ZWYwVVRCGLzAoKi7jRgAVo2iIKGiQxajRiEHRkLiNC7i8oGhURFFjxAcVWSQal5AIRGOiaFwSEXwxLiFq1IBLBkRBBx2NCQIyiGNAHWA+U/B35kx7uvt03x71Gv6nmdt16tTfp6pOVXWlsgd78N8EUA+cBdwMzAeWAo3A98AWOvCLfrNnS4AngduA0cCh/5bxRwL3AcuAnVSPduAL4HHgtH+CwMnAImCHY8Q24GNgAXArcA5wAnA40M1ZexAwADgFuAiYAjwFfAD8FiP2JXCNu74sAr2BuXpzhj+AF4ALgH1K0N8TOAN4GFjnELITH1IWCXuLK6V4h+KgTynK/fvV6TR+1J52WhdXq/QIoFkKLUiHlmZx9t77Ac9o7+3AeUUV7QV8IkXvmOLSrQ2zY7qT9QYUUXC/E3i9CxrxCLAC2KSk8C3wplJ130Ad3YBXZctLeQ04TL5pwT2sIAkzoCUl5Rqx2cABAbr6OfYMzmPEVG22KMV/Z+iC+wloSJDrC5wEHGLZDTgGGA+85tw/q4HjAmyaK/k5eYjYvWAY53l2oNzNRRswJkHX60CrTqBJWW+E7qTPtH5TFhlglGS/CSWxrwzb7osNYF6Cq/waz/lyr7UeWXOR5+XCi52T2T/Frh6Oe2WXNMCpUZAnPP85xe/tDfeIye+tC9Vca4iykJ2QYbnIfK7/Z2TYZnWc4cIQInYZGZYkPN9MOiZ51kRlyLtmhGJljeTtZIbpTW+10ibFtlla80AIkZkSfizheZQKk7DRSg4PERd2Ksc6rjJCFbHhhhTbrtslAc+FEFko4VsSno8hHb9bnCVksLtUp6GTscyH4i4y0usJ0mElv2FpCJH3JDw24Xl3yxwJJP4ErszQf7dkzc2G6u+vgUH6e3XK2uMl0xRCxFKkYVCKzCQPifYk8p7LDQW8ZUgUG5bWDVtS1h4smZYQIhsknBZ0vZzqNEJjpvLOMfO+pVsndZvrGdalrIvkW0M2sYsLn5/H5BpiRKyP6B5KxilM1+rSHC49yzJeoGFbiPKodMg0Cng7RubSPEQ87fNGK1YzGrBdsRii0LKOoVdgv+IWhj9knWQ1IGeMRBdefaDyuIvNL8NoH4CjtUdziPB3Eh6YKdyxZk6MzPRKF4DdJY5hRYhwVM+MzrGB3S2vxMi87Os1NEZq1QuzdqEuxz5jpfutEOFnJTwxdAMno7wRI2Mp+kbLTpK5ib/jo9AWlt2dpWFeiPAdRX1d6dRXi6339DAuNodMSoCnJT85xJiREl6Vl4jTN8x2ZmChMPnrM3R/JdmRoW91qxT3L0JGeq7QjZ0H61P0DXSmKT1DjbBANUwtSkR6jvJcmmloTNF1r2QW5jFgnBY1BbNP1mXt7rWe2syHy1Omj3bZkmtQJz9fGRxYYTqt0p2W0Cq3p7W5wETJrck92AbO12IrIoeXQcYZJU0GPpXuD4EzM9yzRbY0FN30iSgIgdOrIVBw//6arhgWV6Oozuml29Sa9ivV2uRK4SrHDZenjYryxMss515o06Tw3NIs71xNT3HiE/Uq9WVuMio26jRMC3iz9o2xj0ZAgzX6ORuYANwOPKp0HxWrEZo1kCj3q1XsrVnhl9gXAPdoDJoXrSJ1WVSfdTminT2/P+QYtlN11AZ9UlilbGUV9os2OwPu1OmcmLdV7jIiDgmbG19SqQUQIwI86HxnHF+pFeAQcT6PGYmrK7UEOjDTITGhUmugM2rvJCL8L0gYnKF1bWSnSo3gL8yFJ8d+Y38aAAAAAElFTkSuQmCC;" parent="1" vertex="1">
          <mxGeometry x="1854" y="1080" width="50" height="50" as="geometry" />
        </mxCell>
        <mxCell id="771GOue70q3jVIo_l1kY-43" value="" style="rounded=0;whiteSpace=wrap;html=1;strokeColor=none;" parent="1" vertex="1">
          <mxGeometry x="2030" y="1050" width="1070" height="110" as="geometry" />
        </mxCell>
        <mxCell id="771GOue70q3jVIo_l1kY-44" value="&lt;font style=&quot;font-size: 21px;&quot;&gt;Now -&amp;nbsp;these are the words you want to learn now&lt;br&gt;Already -&amp;nbsp;these are words you have already learned&lt;br&gt;&lt;/font&gt;" style="text;html=1;align=left;verticalAlign=middle;whiteSpace=wrap;rounded=0;" parent="1" vertex="1">
          <mxGeometry x="2060" y="1070" width="540" height="70" as="geometry" />
        </mxCell>
        <mxCell id="771GOue70q3jVIo_l1kY-45" value="" style="shape=image;verticalLabelPosition=bottom;labelBackgroundColor=default;verticalAlign=top;aspect=fixed;imageAspect=0;image=data:image/png,iVBORw0KGgoAAAANSUhEUgAAADIAAAAyCAYAAAAeP4ixAAAACXBIWXMAAAsTAAALEwEAmpwYAAADYklEQVR4nO2Zy04UQRSGe4GK4TouYauCcSGK7lTiTmIi+gSEiLyAF3QNsiUYlhJ8AS+JKxm87tS9gG4U3CoKiCv5TMlfsTKZ6a7u6Z4ek/mTSTrTVaf+03Xq3CoIGmggfwA9wDiwCCwBW6QHI8vILAI3gcNZKHASeEbtsQj0p6HAHmAW2JHgr8A94KJ2pyWVL7W7VotkDgFzWgutfRdoSiq4ADyXsJ/ABNCeFnGP9duBSWDb2Z3OJDthTemLMa3MGEdzOQZ8EpdXwN44k405GawCXZky9ePTBayJ00ycg70jczoe1AmAEzKz3+bZZ4I1qYmgzgDcEbdi1MAexzvV7GA761/QmTRmNFjmfQfwTRwPhQkywc5gLmvSFdZfc2LIaoUx83p/I0yQiaoGQ1kSrlKRy3q/ECZoRYMSpweKPyPAY2BZqceWnh/pXaHC3EEpY7zl+QjzXw4jsaFBbQkU2A/cBr57pB7rwC2gOcE6bZKxETboLxL6+XcO0afAqE1j9OvVfwvOuLdJ4hRRPJMoIiVW7XYDpz3mnHHMOHbQJW1FZE52J17EyYV0ll5q7ps4ZkYGipgzgeqIeAndP2XszoznoohI2IMdaU4hcgYcB1DIQ5ERe7Bj8I6KX8N5KGJigsGVGJwryboqWQ/yUMTadk8MzpVk9VqvF+SgyKaGt8bgXElWq2Rt/u+KmLLW4Ifn+IZphR320aBKAGN5HvaRyHTaE+qQ5OZ+CwpiBmdj8C6Vc04yjKzOmitSkqKs+EblMh/jQ2TFVwNFmpWKowTQWxngAPC6LpLGMmm8+boDgZ85faybNL5EGfNVLYryREcU7Fr1POYcbLsTmRRWG1WUus3qwlgHEIZ1XR3sy6rUXUmh+dBp3CjwUHXKpn5L+m84Se0St/mQazvIB047qHL5oO3OrUHnA+C+OF6r25ZpFLxbphpsvcpkUGcApiLNyhncr2uFba/2fY3A7nXHL10r9PlOMnd2qH3ZnTnLaD7dTl94Os7EJsfETJv/VKZMw7n0AZ+dQNuUJB5YZbZ1ydKRGePyB3tK5oRarcnij3ZmRnaJPIa5n7ikhkHVZa6zlkljehUn5h3vZNaeTnw9XbLIUeAJtUcxE4djfLepG7TNNv1IC0bWe3XyrwMHU1eggQaC2PgDcoKh50PBZGwAAAAASUVORK5CYII=;" parent="1" vertex="1">
          <mxGeometry x="3040" y="1080" width="50" height="50" as="geometry" />
        </mxCell>
        <mxCell id="771GOue70q3jVIo_l1kY-46" value="" style="shape=image;verticalLabelPosition=bottom;labelBackgroundColor=default;verticalAlign=top;aspect=fixed;imageAspect=0;image=data:image/png,iVBORw0KGgoAAAANSUhEUgAAADIAAAAyCAYAAAAeP4ixAAAACXBIWXMAAAsTAAALEwEAmpwYAAAFJUlEQVR4nO2ZWYwVVRCGLzAoKi7jRgAVo2iIKGiQxajRiEHRkLiNC7i8oGhURFFjxAcVWSQal5AIRGOiaFwSEXwxLiFq1IBLBkRBBx2NCQIyiGNAHWA+U/B35kx7uvt03x71Gv6nmdt16tTfp6pOVXWlsgd78N8EUA+cBdwMzAeWAo3A98AWOvCLfrNnS4AngduA0cCh/5bxRwL3AcuAnVSPduAL4HHgtH+CwMnAImCHY8Q24GNgAXArcA5wAnA40M1ZexAwADgFuAiYAjwFfAD8FiP2JXCNu74sAr2BuXpzhj+AF4ALgH1K0N8TOAN4GFjnELITH1IWCXuLK6V4h+KgTynK/fvV6TR+1J52WhdXq/QIoFkKLUiHlmZx9t77Ac9o7+3AeUUV7QV8IkXvmOLSrQ2zY7qT9QYUUXC/E3i9CxrxCLAC2KSk8C3wplJ130Ad3YBXZctLeQ04TL5pwT2sIAkzoCUl5Rqx2cABAbr6OfYMzmPEVG22KMV/Z+iC+wloSJDrC5wEHGLZDTgGGA+85tw/q4HjAmyaK/k5eYjYvWAY53l2oNzNRRswJkHX60CrTqBJWW+E7qTPtH5TFhlglGS/CSWxrwzb7osNYF6Cq/waz/lyr7UeWXOR5+XCi52T2T/Frh6Oe2WXNMCpUZAnPP85xe/tDfeIye+tC9Vca4iykJ2QYbnIfK7/Z2TYZnWc4cIQInYZGZYkPN9MOiZ51kRlyLtmhGJljeTtZIbpTW+10ibFtlla80AIkZkSfizheZQKk7DRSg4PERd2Ksc6rjJCFbHhhhTbrtslAc+FEFko4VsSno8hHb9bnCVksLtUp6GTscyH4i4y0usJ0mElv2FpCJH3JDw24Xl3yxwJJP4ErszQf7dkzc2G6u+vgUH6e3XK2uMl0xRCxFKkYVCKzCQPifYk8p7LDQW8ZUgUG5bWDVtS1h4smZYQIhsknBZ0vZzqNEJjpvLOMfO+pVsndZvrGdalrIvkW0M2sYsLn5/H5BpiRKyP6B5KxilM1+rSHC49yzJeoGFbiPKodMg0Cng7RubSPEQ87fNGK1YzGrBdsRii0LKOoVdgv+IWhj9knWQ1IGeMRBdefaDyuIvNL8NoH4CjtUdziPB3Eh6YKdyxZk6MzPRKF4DdJY5hRYhwVM+MzrGB3S2vxMi87Os1NEZq1QuzdqEuxz5jpfutEOFnJTwxdAMno7wRI2Mp+kbLTpK5ib/jo9AWlt2dpWFeiPAdRX1d6dRXi6339DAuNodMSoCnJT85xJiREl6Vl4jTN8x2ZmChMPnrM3R/JdmRoW91qxT3L0JGeq7QjZ0H61P0DXSmKT1DjbBANUwtSkR6jvJcmmloTNF1r2QW5jFgnBY1BbNP1mXt7rWe2syHy1Omj3bZkmtQJz9fGRxYYTqt0p2W0Cq3p7W5wETJrck92AbO12IrIoeXQcYZJU0GPpXuD4EzM9yzRbY0FN30iSgIgdOrIVBw//6arhgWV6Oozuml29Sa9ivV2uRK4SrHDZenjYryxMss515o06Tw3NIs71xNT3HiE/Uq9WVuMio26jRMC3iz9o2xj0ZAgzX6ORuYANwOPKp0HxWrEZo1kCj3q1XsrVnhl9gXAPdoDJoXrSJ1WVSfdTminT2/P+QYtlN11AZ9UlilbGUV9os2OwPu1OmcmLdV7jIiDgmbG19SqQUQIwI86HxnHF+pFeAQcT6PGYmrK7UEOjDTITGhUmugM2rvJCL8L0gYnKF1bWSnSo3gL8yFJ8d+Y38aAAAAAElFTkSuQmCC;" parent="1" vertex="1">
          <mxGeometry x="2974" y="1080" width="50" height="50" as="geometry" />
        </mxCell>
        <mxCell id="771GOue70q3jVIo_l1kY-54" value="" style="rounded=0;whiteSpace=wrap;html=1;fillColor=#000000;strokeColor=#6D1F00;fontColor=#ffffff;" parent="1" vertex="1">
          <mxGeometry x="2250" y="-1370" width="1070" height="1210" as="geometry" />
        </mxCell>
        <mxCell id="771GOue70q3jVIo_l1kY-55" value="&lt;font style=&quot;font-size: 46px;&quot; color=&quot;#ffffff&quot;&gt;YourEng.&lt;/font&gt;" style="text;html=1;align=center;verticalAlign=middle;whiteSpace=wrap;rounded=0;fontSize=46;" parent="1" vertex="1">
          <mxGeometry x="2270" y="-1370" width="180" height="90" as="geometry" />
        </mxCell>
        <mxCell id="771GOue70q3jVIo_l1kY-56" value="&lt;font style=&quot;font-size: 22px;&quot;&gt;Sign in&lt;/font&gt;" style="rounded=1;whiteSpace=wrap;html=1;" parent="1" vertex="1">
          <mxGeometry x="3170" y="-1354.67" width="140" height="46.67" as="geometry" />
        </mxCell>
        <mxCell id="771GOue70q3jVIo_l1kY-57" value="" style="endArrow=none;html=1;rounded=0;fontColor=#FFFFFF;strokeColor=#FFFFFF;entryX=1.009;entryY=0.05;entryDx=0;entryDy=0;entryPerimeter=0;strokeWidth=3;" parent="1" edge="1">
          <mxGeometry width="50" height="50" relative="1" as="geometry">
            <mxPoint x="2250" y="-1290" as="sourcePoint" />
            <mxPoint x="3329.63" y="-1289.5000000000002" as="targetPoint" />
          </mxGeometry>
        </mxCell>
        <mxCell id="771GOue70q3jVIo_l1kY-59" value="" style="rounded=0;whiteSpace=wrap;html=1;strokeColor=none;" parent="1" vertex="1">
          <mxGeometry x="2250" y="-270" width="1070" height="110" as="geometry" />
        </mxCell>
        <mxCell id="771GOue70q3jVIo_l1kY-60" style="edgeStyle=orthogonalEdgeStyle;rounded=0;orthogonalLoop=1;jettySize=auto;html=1;exitX=0.5;exitY=1;exitDx=0;exitDy=0;" parent="1" edge="1">
          <mxGeometry relative="1" as="geometry">
            <mxPoint x="2811" y="-940.0000000000005" as="sourcePoint" />
            <mxPoint x="2811" y="-940.0000000000005" as="targetPoint" />
          </mxGeometry>
        </mxCell>
        <mxCell id="771GOue70q3jVIo_l1kY-61" value="&lt;font style=&quot;font-size: 24px;&quot;&gt;Log in&lt;/font&gt;" style="rounded=1;whiteSpace=wrap;html=1;fillColor=#000000;fontColor=#FFFFFF;strokeColor=#FFFFFF;strokeWidth=3;" parent="1" vertex="1">
          <mxGeometry x="2740" y="-1043" width="129" height="43" as="geometry" />
        </mxCell>
        <mxCell id="771GOue70q3jVIo_l1kY-62" value="&lt;font style=&quot;font-size: 21px;&quot;&gt;Now -&amp;nbsp;these are the words you want to learn now&lt;br&gt;Already -&amp;nbsp;these are words you have already learned&lt;br&gt;&lt;/font&gt;" style="text;html=1;align=left;verticalAlign=middle;whiteSpace=wrap;rounded=0;" parent="1" vertex="1">
          <mxGeometry x="2280" y="-250" width="540" height="70" as="geometry" />
        </mxCell>
        <mxCell id="771GOue70q3jVIo_l1kY-63" value="" style="shape=image;verticalLabelPosition=bottom;labelBackgroundColor=default;verticalAlign=top;aspect=fixed;imageAspect=0;image=data:image/png,iVBORw0KGgoAAAANSUhEUgAAADIAAAAyCAYAAAAeP4ixAAAACXBIWXMAAAsTAAALEwEAmpwYAAADYklEQVR4nO2Zy04UQRSGe4GK4TouYauCcSGK7lTiTmIi+gSEiLyAF3QNsiUYlhJ8AS+JKxm87tS9gG4U3CoKiCv5TMlfsTKZ6a7u6Z4ek/mTSTrTVaf+03Xq3CoIGmggfwA9wDiwCCwBW6QHI8vILAI3gcNZKHASeEbtsQj0p6HAHmAW2JHgr8A94KJ2pyWVL7W7VotkDgFzWgutfRdoSiq4ADyXsJ/ABNCeFnGP9duBSWDb2Z3OJDthTemLMa3MGEdzOQZ8EpdXwN44k405GawCXZky9ePTBayJ00ycg70jczoe1AmAEzKz3+bZZ4I1qYmgzgDcEbdi1MAexzvV7GA761/QmTRmNFjmfQfwTRwPhQkywc5gLmvSFdZfc2LIaoUx83p/I0yQiaoGQ1kSrlKRy3q/ECZoRYMSpweKPyPAY2BZqceWnh/pXaHC3EEpY7zl+QjzXw4jsaFBbQkU2A/cBr57pB7rwC2gOcE6bZKxETboLxL6+XcO0afAqE1j9OvVfwvOuLdJ4hRRPJMoIiVW7XYDpz3mnHHMOHbQJW1FZE52J17EyYV0ll5q7ps4ZkYGipgzgeqIeAndP2XszoznoohI2IMdaU4hcgYcB1DIQ5ERe7Bj8I6KX8N5KGJigsGVGJwryboqWQ/yUMTadk8MzpVk9VqvF+SgyKaGt8bgXElWq2Rt/u+KmLLW4Ifn+IZphR320aBKAGN5HvaRyHTaE+qQ5OZ+CwpiBmdj8C6Vc04yjKzOmitSkqKs+EblMh/jQ2TFVwNFmpWKowTQWxngAPC6LpLGMmm8+boDgZ85faybNL5EGfNVLYryREcU7Fr1POYcbLsTmRRWG1WUus3qwlgHEIZ1XR3sy6rUXUmh+dBp3CjwUHXKpn5L+m84Se0St/mQazvIB047qHL5oO3OrUHnA+C+OF6r25ZpFLxbphpsvcpkUGcApiLNyhncr2uFba/2fY3A7nXHL10r9PlOMnd2qH3ZnTnLaD7dTl94Os7EJsfETJv/VKZMw7n0AZ+dQNuUJB5YZbZ1ydKRGePyB3tK5oRarcnij3ZmRnaJPIa5n7ikhkHVZa6zlkljehUn5h3vZNaeTnw9XbLIUeAJtUcxE4djfLepG7TNNv1IC0bWe3XyrwMHU1eggQaC2PgDcoKh50PBZGwAAAAASUVORK5CYII=;" parent="1" vertex="1">
          <mxGeometry x="3260" y="-240" width="50" height="50" as="geometry" />
        </mxCell>
        <mxCell id="771GOue70q3jVIo_l1kY-64" value="" style="shape=image;verticalLabelPosition=bottom;labelBackgroundColor=default;verticalAlign=top;aspect=fixed;imageAspect=0;image=data:image/png,iVBORw0KGgoAAAANSUhEUgAAADIAAAAyCAYAAAAeP4ixAAAACXBIWXMAAAsTAAALEwEAmpwYAAAFJUlEQVR4nO2ZWYwVVRCGLzAoKi7jRgAVo2iIKGiQxajRiEHRkLiNC7i8oGhURFFjxAcVWSQal5AIRGOiaFwSEXwxLiFq1IBLBkRBBx2NCQIyiGNAHWA+U/B35kx7uvt03x71Gv6nmdt16tTfp6pOVXWlsgd78N8EUA+cBdwMzAeWAo3A98AWOvCLfrNnS4AngduA0cCh/5bxRwL3AcuAnVSPduAL4HHgtH+CwMnAImCHY8Q24GNgAXArcA5wAnA40M1ZexAwADgFuAiYAjwFfAD8FiP2JXCNu74sAr2BuXpzhj+AF4ALgH1K0N8TOAN4GFjnELITH1IWCXuLK6V4h+KgTynK/fvV6TR+1J52WhdXq/QIoFkKLUiHlmZx9t77Ac9o7+3AeUUV7QV8IkXvmOLSrQ2zY7qT9QYUUXC/E3i9CxrxCLAC2KSk8C3wplJ130Ad3YBXZctLeQ04TL5pwT2sIAkzoCUl5Rqx2cABAbr6OfYMzmPEVG22KMV/Z+iC+wloSJDrC5wEHGLZDTgGGA+85tw/q4HjAmyaK/k5eYjYvWAY53l2oNzNRRswJkHX60CrTqBJWW+E7qTPtH5TFhlglGS/CSWxrwzb7osNYF6Cq/waz/lyr7UeWXOR5+XCi52T2T/Frh6Oe2WXNMCpUZAnPP85xe/tDfeIye+tC9Vca4iykJ2QYbnIfK7/Z2TYZnWc4cIQInYZGZYkPN9MOiZ51kRlyLtmhGJljeTtZIbpTW+10ibFtlla80AIkZkSfizheZQKk7DRSg4PERd2Ksc6rjJCFbHhhhTbrtslAc+FEFko4VsSno8hHb9bnCVksLtUp6GTscyH4i4y0usJ0mElv2FpCJH3JDw24Xl3yxwJJP4ErszQf7dkzc2G6u+vgUH6e3XK2uMl0xRCxFKkYVCKzCQPifYk8p7LDQW8ZUgUG5bWDVtS1h4smZYQIhsknBZ0vZzqNEJjpvLOMfO+pVsndZvrGdalrIvkW0M2sYsLn5/H5BpiRKyP6B5KxilM1+rSHC49yzJeoGFbiPKodMg0Cng7RubSPEQ87fNGK1YzGrBdsRii0LKOoVdgv+IWhj9knWQ1IGeMRBdefaDyuIvNL8NoH4CjtUdziPB3Eh6YKdyxZk6MzPRKF4DdJY5hRYhwVM+MzrGB3S2vxMi87Os1NEZq1QuzdqEuxz5jpfutEOFnJTwxdAMno7wRI2Mp+kbLTpK5ib/jo9AWlt2dpWFeiPAdRX1d6dRXi6339DAuNodMSoCnJT85xJiREl6Vl4jTN8x2ZmChMPnrM3R/JdmRoW91qxT3L0JGeq7QjZ0H61P0DXSmKT1DjbBANUwtSkR6jvJcmmloTNF1r2QW5jFgnBY1BbNP1mXt7rWe2syHy1Omj3bZkmtQJz9fGRxYYTqt0p2W0Cq3p7W5wETJrck92AbO12IrIoeXQcYZJU0GPpXuD4EzM9yzRbY0FN30iSgIgdOrIVBw//6arhgWV6Oozuml29Sa9ivV2uRK4SrHDZenjYryxMss515o06Tw3NIs71xNT3HiE/Uq9WVuMio26jRMC3iz9o2xj0ZAgzX6ORuYANwOPKp0HxWrEZo1kCj3q1XsrVnhl9gXAPdoDJoXrSJ1WVSfdTminT2/P+QYtlN11AZ9UlilbGUV9os2OwPu1OmcmLdV7jIiDgmbG19SqQUQIwI86HxnHF+pFeAQcT6PGYmrK7UEOjDTITGhUmugM2rvJCL8L0gYnKF1bWSnSo3gL8yFJ8d+Y38aAAAAAElFTkSuQmCC;" parent="1" vertex="1">
          <mxGeometry x="3194" y="-240" width="50" height="50" as="geometry" />
        </mxCell>
        <mxCell id="771GOue70q3jVIo_l1kY-66" value="" style="rounded=1;whiteSpace=wrap;html=1;strokeColor=#FFFFFF;fillColor=#000000;strokeWidth=4;" parent="1" vertex="1">
          <mxGeometry x="2629" y="-1190" width="361" height="46.83" as="geometry" />
        </mxCell>
        <mxCell id="771GOue70q3jVIo_l1kY-67" value="&lt;font color=&quot;#ffffff&quot;&gt;&lt;span style=&quot;font-size: 35px;&quot;&gt;Nickname&lt;/span&gt;&lt;/font&gt;" style="text;html=1;align=center;verticalAlign=middle;whiteSpace=wrap;rounded=0;" parent="1" vertex="1">
          <mxGeometry x="2605.66" y="-1202.5" width="224.34" height="70" as="geometry" />
        </mxCell>
        <mxCell id="771GOue70q3jVIo_l1kY-68" value="" style="rounded=1;whiteSpace=wrap;html=1;strokeColor=#FFFFFF;fillColor=#000000;strokeWidth=4;" parent="1" vertex="1">
          <mxGeometry x="2629" y="-1120" width="361" height="46.83" as="geometry" />
        </mxCell>
        <mxCell id="771GOue70q3jVIo_l1kY-69" value="&lt;font color=&quot;#ffffff&quot;&gt;&lt;span style=&quot;font-size: 35px;&quot;&gt;Password&lt;/span&gt;&lt;/font&gt;" style="text;html=1;align=center;verticalAlign=middle;whiteSpace=wrap;rounded=0;" parent="1" vertex="1">
          <mxGeometry x="2605.66" y="-1132.5" width="224.34" height="70" as="geometry" />
        </mxCell>
        <mxCell id="771GOue70q3jVIo_l1kY-71" value="Don&#39;t have an account?&amp;nbsp;↑" style="text;html=1;align=center;verticalAlign=middle;whiteSpace=wrap;rounded=0;fontColor=#FFFFFF;fontSize=36;" parent="1" vertex="1">
          <mxGeometry x="2855" y="-1280" width="445" height="70" as="geometry" />
        </mxCell>
        <mxCell id="771GOue70q3jVIo_l1kY-72" value="" style="rounded=0;whiteSpace=wrap;html=1;fillColor=#000000;strokeColor=#6D1F00;fontColor=#ffffff;" parent="1" vertex="1">
          <mxGeometry x="3650" y="-1370" width="1070" height="1210" as="geometry" />
        </mxCell>
        <mxCell id="771GOue70q3jVIo_l1kY-73" value="&lt;font style=&quot;font-size: 46px;&quot; color=&quot;#ffffff&quot;&gt;YourEng.&lt;/font&gt;" style="text;html=1;align=center;verticalAlign=middle;whiteSpace=wrap;rounded=0;fontSize=46;" parent="1" vertex="1">
          <mxGeometry x="3670" y="-1370" width="180" height="90" as="geometry" />
        </mxCell>
        <mxCell id="771GOue70q3jVIo_l1kY-74" value="&lt;font style=&quot;font-size: 22px;&quot;&gt;Log in&lt;/font&gt;" style="rounded=1;whiteSpace=wrap;html=1;" parent="1" vertex="1">
          <mxGeometry x="4570" y="-1354.67" width="140" height="46.67" as="geometry" />
        </mxCell>
        <mxCell id="771GOue70q3jVIo_l1kY-75" value="" style="endArrow=none;html=1;rounded=0;fontColor=#FFFFFF;strokeColor=#FFFFFF;entryX=1.009;entryY=0.05;entryDx=0;entryDy=0;entryPerimeter=0;strokeWidth=3;" parent="1" edge="1">
          <mxGeometry width="50" height="50" relative="1" as="geometry">
            <mxPoint x="3650" y="-1290" as="sourcePoint" />
            <mxPoint x="4729.63" y="-1289.5000000000002" as="targetPoint" />
          </mxGeometry>
        </mxCell>
        <mxCell id="771GOue70q3jVIo_l1kY-76" value="" style="rounded=0;whiteSpace=wrap;html=1;strokeColor=none;" parent="1" vertex="1">
          <mxGeometry x="3650" y="-270" width="1070" height="110" as="geometry" />
        </mxCell>
        <mxCell id="771GOue70q3jVIo_l1kY-77" style="edgeStyle=orthogonalEdgeStyle;rounded=0;orthogonalLoop=1;jettySize=auto;html=1;exitX=0.5;exitY=1;exitDx=0;exitDy=0;" parent="1" edge="1">
          <mxGeometry relative="1" as="geometry">
            <mxPoint x="4211" y="-940.0000000000005" as="sourcePoint" />
            <mxPoint x="4211" y="-940.0000000000005" as="targetPoint" />
          </mxGeometry>
        </mxCell>
        <mxCell id="771GOue70q3jVIo_l1kY-78" value="&lt;font style=&quot;font-size: 24px;&quot;&gt;Sign in&lt;/font&gt;" style="rounded=1;whiteSpace=wrap;html=1;fillColor=#000000;fontColor=#FFFFFF;strokeColor=#FFFFFF;strokeWidth=3;" parent="1" vertex="1">
          <mxGeometry x="4140" y="-973" width="129" height="43" as="geometry" />
        </mxCell>
        <mxCell id="771GOue70q3jVIo_l1kY-79" value="&lt;font style=&quot;font-size: 21px;&quot;&gt;Now -&amp;nbsp;these are the words you want to learn now&lt;br&gt;Already -&amp;nbsp;these are words you have already learned&lt;br&gt;&lt;/font&gt;" style="text;html=1;align=left;verticalAlign=middle;whiteSpace=wrap;rounded=0;" parent="1" vertex="1">
          <mxGeometry x="3680" y="-250" width="540" height="70" as="geometry" />
        </mxCell>
        <mxCell id="771GOue70q3jVIo_l1kY-80" value="" style="shape=image;verticalLabelPosition=bottom;labelBackgroundColor=default;verticalAlign=top;aspect=fixed;imageAspect=0;image=data:image/png,iVBORw0KGgoAAAANSUhEUgAAADIAAAAyCAYAAAAeP4ixAAAACXBIWXMAAAsTAAALEwEAmpwYAAADYklEQVR4nO2Zy04UQRSGe4GK4TouYauCcSGK7lTiTmIi+gSEiLyAF3QNsiUYlhJ8AS+JKxm87tS9gG4U3CoKiCv5TMlfsTKZ6a7u6Z4ek/mTSTrTVaf+03Xq3CoIGmggfwA9wDiwCCwBW6QHI8vILAI3gcNZKHASeEbtsQj0p6HAHmAW2JHgr8A94KJ2pyWVL7W7VotkDgFzWgutfRdoSiq4ADyXsJ/ABNCeFnGP9duBSWDb2Z3OJDthTemLMa3MGEdzOQZ8EpdXwN44k405GawCXZky9ePTBayJ00ycg70jczoe1AmAEzKz3+bZZ4I1qYmgzgDcEbdi1MAexzvV7GA761/QmTRmNFjmfQfwTRwPhQkywc5gLmvSFdZfc2LIaoUx83p/I0yQiaoGQ1kSrlKRy3q/ECZoRYMSpweKPyPAY2BZqceWnh/pXaHC3EEpY7zl+QjzXw4jsaFBbQkU2A/cBr57pB7rwC2gOcE6bZKxETboLxL6+XcO0afAqE1j9OvVfwvOuLdJ4hRRPJMoIiVW7XYDpz3mnHHMOHbQJW1FZE52J17EyYV0ll5q7ps4ZkYGipgzgeqIeAndP2XszoznoohI2IMdaU4hcgYcB1DIQ5ERe7Bj8I6KX8N5KGJigsGVGJwryboqWQ/yUMTadk8MzpVk9VqvF+SgyKaGt8bgXElWq2Rt/u+KmLLW4Ifn+IZphR320aBKAGN5HvaRyHTaE+qQ5OZ+CwpiBmdj8C6Vc04yjKzOmitSkqKs+EblMh/jQ2TFVwNFmpWKowTQWxngAPC6LpLGMmm8+boDgZ85faybNL5EGfNVLYryREcU7Fr1POYcbLsTmRRWG1WUus3qwlgHEIZ1XR3sy6rUXUmh+dBp3CjwUHXKpn5L+m84Se0St/mQazvIB047qHL5oO3OrUHnA+C+OF6r25ZpFLxbphpsvcpkUGcApiLNyhncr2uFba/2fY3A7nXHL10r9PlOMnd2qH3ZnTnLaD7dTl94Os7EJsfETJv/VKZMw7n0AZ+dQNuUJB5YZbZ1ydKRGePyB3tK5oRarcnij3ZmRnaJPIa5n7ikhkHVZa6zlkljehUn5h3vZNaeTnw9XbLIUeAJtUcxE4djfLepG7TNNv1IC0bWe3XyrwMHU1eggQaC2PgDcoKh50PBZGwAAAAASUVORK5CYII=;" parent="1" vertex="1">
          <mxGeometry x="4660" y="-240" width="50" height="50" as="geometry" />
        </mxCell>
        <mxCell id="771GOue70q3jVIo_l1kY-81" value="" style="shape=image;verticalLabelPosition=bottom;labelBackgroundColor=default;verticalAlign=top;aspect=fixed;imageAspect=0;image=data:image/png,iVBORw0KGgoAAAANSUhEUgAAADIAAAAyCAYAAAAeP4ixAAAACXBIWXMAAAsTAAALEwEAmpwYAAAFJUlEQVR4nO2ZWYwVVRCGLzAoKi7jRgAVo2iIKGiQxajRiEHRkLiNC7i8oGhURFFjxAcVWSQal5AIRGOiaFwSEXwxLiFq1IBLBkRBBx2NCQIyiGNAHWA+U/B35kx7uvt03x71Gv6nmdt16tTfp6pOVXWlsgd78N8EUA+cBdwMzAeWAo3A98AWOvCLfrNnS4AngduA0cCh/5bxRwL3AcuAnVSPduAL4HHgtH+CwMnAImCHY8Q24GNgAXArcA5wAnA40M1ZexAwADgFuAiYAjwFfAD8FiP2JXCNu74sAr2BuXpzhj+AF4ALgH1K0N8TOAN4GFjnELITH1IWCXuLK6V4h+KgTynK/fvV6TR+1J52WhdXq/QIoFkKLUiHlmZx9t77Ac9o7+3AeUUV7QV8IkXvmOLSrQ2zY7qT9QYUUXC/E3i9CxrxCLAC2KSk8C3wplJ130Ad3YBXZctLeQ04TL5pwT2sIAkzoCUl5Rqx2cABAbr6OfYMzmPEVG22KMV/Z+iC+wloSJDrC5wEHGLZDTgGGA+85tw/q4HjAmyaK/k5eYjYvWAY53l2oNzNRRswJkHX60CrTqBJWW+E7qTPtH5TFhlglGS/CSWxrwzb7osNYF6Cq/waz/lyr7UeWXOR5+XCi52T2T/Frh6Oe2WXNMCpUZAnPP85xe/tDfeIye+tC9Vca4iykJ2QYbnIfK7/Z2TYZnWc4cIQInYZGZYkPN9MOiZ51kRlyLtmhGJljeTtZIbpTW+10ibFtlla80AIkZkSfizheZQKk7DRSg4PERd2Ksc6rjJCFbHhhhTbrtslAc+FEFko4VsSno8hHb9bnCVksLtUp6GTscyH4i4y0usJ0mElv2FpCJH3JDw24Xl3yxwJJP4ErszQf7dkzc2G6u+vgUH6e3XK2uMl0xRCxFKkYVCKzCQPifYk8p7LDQW8ZUgUG5bWDVtS1h4smZYQIhsknBZ0vZzqNEJjpvLOMfO+pVsndZvrGdalrIvkW0M2sYsLn5/H5BpiRKyP6B5KxilM1+rSHC49yzJeoGFbiPKodMg0Cng7RubSPEQ87fNGK1YzGrBdsRii0LKOoVdgv+IWhj9knWQ1IGeMRBdefaDyuIvNL8NoH4CjtUdziPB3Eh6YKdyxZk6MzPRKF4DdJY5hRYhwVM+MzrGB3S2vxMi87Os1NEZq1QuzdqEuxz5jpfutEOFnJTwxdAMno7wRI2Mp+kbLTpK5ib/jo9AWlt2dpWFeiPAdRX1d6dRXi6339DAuNodMSoCnJT85xJiREl6Vl4jTN8x2ZmChMPnrM3R/JdmRoW91qxT3L0JGeq7QjZ0H61P0DXSmKT1DjbBANUwtSkR6jvJcmmloTNF1r2QW5jFgnBY1BbNP1mXt7rWe2syHy1Omj3bZkmtQJz9fGRxYYTqt0p2W0Cq3p7W5wETJrck92AbO12IrIoeXQcYZJU0GPpXuD4EzM9yzRbY0FN30iSgIgdOrIVBw//6arhgWV6Oozuml29Sa9ivV2uRK4SrHDZenjYryxMss515o06Tw3NIs71xNT3HiE/Uq9WVuMio26jRMC3iz9o2xj0ZAgzX6ORuYANwOPKp0HxWrEZo1kCj3q1XsrVnhl9gXAPdoDJoXrSJ1WVSfdTminT2/P+QYtlN11AZ9UlilbGUV9os2OwPu1OmcmLdV7jIiDgmbG19SqQUQIwI86HxnHF+pFeAQcT6PGYmrK7UEOjDTITGhUmugM2rvJCL8L0gYnKF1bWSnSo3gL8yFJ8d+Y38aAAAAAElFTkSuQmCC;" parent="1" vertex="1">
          <mxGeometry x="4594" y="-240" width="50" height="50" as="geometry" />
        </mxCell>
        <mxCell id="771GOue70q3jVIo_l1kY-82" value="" style="rounded=1;whiteSpace=wrap;html=1;strokeColor=#FFFFFF;fillColor=#000000;strokeWidth=4;" parent="1" vertex="1">
          <mxGeometry x="4029" y="-1190" width="361" height="46.83" as="geometry" />
        </mxCell>
        <mxCell id="771GOue70q3jVIo_l1kY-83" value="&lt;font color=&quot;#ffffff&quot;&gt;&lt;span style=&quot;font-size: 35px;&quot;&gt;Nickname&lt;/span&gt;&lt;/font&gt;" style="text;html=1;align=center;verticalAlign=middle;whiteSpace=wrap;rounded=0;" parent="1" vertex="1">
          <mxGeometry x="4005.66" y="-1202.5" width="224.34" height="70" as="geometry" />
        </mxCell>
        <mxCell id="771GOue70q3jVIo_l1kY-84" value="" style="rounded=1;whiteSpace=wrap;html=1;strokeColor=#FFFFFF;fillColor=#000000;strokeWidth=4;" parent="1" vertex="1">
          <mxGeometry x="4029" y="-1120" width="361" height="46.83" as="geometry" />
        </mxCell>
        <mxCell id="771GOue70q3jVIo_l1kY-85" value="&lt;font color=&quot;#ffffff&quot;&gt;&lt;span style=&quot;font-size: 35px;&quot;&gt;Password&lt;/span&gt;&lt;/font&gt;" style="text;html=1;align=center;verticalAlign=middle;whiteSpace=wrap;rounded=0;" parent="1" vertex="1">
          <mxGeometry x="4005.66" y="-1132.5" width="224.34" height="70" as="geometry" />
        </mxCell>
        <mxCell id="771GOue70q3jVIo_l1kY-87" value="" style="rounded=1;whiteSpace=wrap;html=1;strokeColor=#FFFFFF;fillColor=#000000;strokeWidth=4;" parent="1" vertex="1">
          <mxGeometry x="4029" y="-1050" width="361" height="46.83" as="geometry" />
        </mxCell>
        <mxCell id="771GOue70q3jVIo_l1kY-88" value="&lt;font color=&quot;#ffffff&quot;&gt;&lt;span style=&quot;font-size: 35px;&quot;&gt;Repeat password&lt;/span&gt;&lt;/font&gt;" style="text;html=1;align=center;verticalAlign=middle;whiteSpace=wrap;rounded=0;" parent="1" vertex="1">
          <mxGeometry x="4005.66" y="-1062.5" width="344.34" height="70" as="geometry" />
        </mxCell>
        <mxCell id="771GOue70q3jVIo_l1kY-89" value="" style="rounded=1;whiteSpace=wrap;html=1;" parent="1" vertex="1">
          <mxGeometry x="410" y="30" width="460" height="260" as="geometry" />
        </mxCell>
        <mxCell id="771GOue70q3jVIo_l1kY-90" value="--Choose your native language--" style="rounded=1;whiteSpace=wrap;html=1;fontColor=#FFFFFF;fontSize=22;fillColor=#000000;strokeColor=none;strokeWidth=2;" parent="1" vertex="1">
          <mxGeometry x="455" y="70" width="370" height="40" as="geometry" />
        </mxCell>
        <mxCell id="771GOue70q3jVIo_l1kY-92" value="Enter your word" style="rounded=1;whiteSpace=wrap;html=1;fontColor=#FFFFFF;fontSize=22;fillColor=#000000;strokeColor=none;strokeWidth=2;" parent="1" vertex="1">
          <mxGeometry x="455" y="140" width="370" height="40" as="geometry" />
        </mxCell>
        <mxCell id="771GOue70q3jVIo_l1kY-93" value="Add Word" style="rounded=1;whiteSpace=wrap;html=1;fontSize=22;fillColor=#d5e8d4;strokeColor=#82b366;strokeWidth=2;" parent="1" vertex="1">
          <mxGeometry x="515" y="210" width="265" height="40" as="geometry" />
        </mxCell>
        <mxCell id="771GOue70q3jVIo_l1kY-94" value="&lt;font style=&quot;font-size: 24px;&quot;&gt;Nickname&lt;/font&gt;" style="text;html=1;align=center;verticalAlign=middle;whiteSpace=wrap;rounded=0;fontColor=#FFFFFF;" parent="1" vertex="1">
          <mxGeometry x="2816" y="-46" width="148" height="74" as="geometry" />
        </mxCell>
        <mxCell id="SIrYSXtYbPevu4pDanaV-2" value="Text" style="text;html=1;align=center;verticalAlign=middle;whiteSpace=wrap;rounded=0;fontSize=24;fontColor=#FFFFFF;" parent="1" vertex="1">
          <mxGeometry x="707" y="-599" width="158" height="79" as="geometry" />
        </mxCell>
        <mxCell id="SIrYSXtYbPevu4pDanaV-5" value="Y o u r E n g ." style="text;html=1;align=center;verticalAlign=middle;whiteSpace=wrap;rounded=0;fontSize=178;fontColor=#FFFFFF;" parent="1" vertex="1">
          <mxGeometry x="903" y="-694" width="1104" height="330" as="geometry" />
        </mxCell>
        <mxCell id="SIrYSXtYbPevu4pDanaV-6" value="Y o u r E n g ." style="text;html=1;align=center;verticalAlign=middle;whiteSpace=wrap;rounded=0;fontSize=178;fontColor=#FFFFFF;" parent="1" vertex="1">
          <mxGeometry x="2243" y="-694" width="1104" height="330" as="geometry" />
        </mxCell>
        <mxCell id="SIrYSXtYbPevu4pDanaV-7" value="Y o u r E n g ." style="text;html=1;align=center;verticalAlign=middle;whiteSpace=wrap;rounded=0;fontSize=178;fontColor=#FFFFFF;" parent="1" vertex="1">
          <mxGeometry x="3643" y="-694" width="1104" height="330" as="geometry" />
        </mxCell>
        <mxCell id="SIrYSXtYbPevu4pDanaV-8" value="" style="shape=image;verticalLabelPosition=bottom;labelBackgroundColor=default;verticalAlign=top;imageAspect=0;image=data:image/png,iVBORw0KGgoAAAANSUhEUgAAAOYAAADhCAYAAADcb8kDAAAACXBIWXMAADddAAA3XQEZgEZdAAAAAXNSR0IArs4c6QAAAARnQU1BAACxjwv8YQUAABJ6SURBVHgB7d39edTGFgbwd3nu/9dUkHEFgQoiKghUkKUCoALWFWAqYKkAqMCiApwKrFQQbgW6c6wjLJb9kLQz0pzR+3sexR+BZO3dd898CyAiIqLTVqDk1XXt/IcLvVznX7kTf7XSj9+712q1qkBJYzBn5kPXhu0JmuD9rh/bry8Qh4S00o+3/vqffqx8cG9Bs2IwJ6QhLNAE8Q804XNI031I/fW3fn7LSjsdBjMiH0QJXoGmCspHB9sqNCH96q+SlTUeBjMg7Qs+R1MNC8RrhqZCmsGlv76gCWoFCoLBPJMPY+E//IkmkA7LVvnrs7+++JCWoNEYzBE6YVwj/6o4VoWmmn5kSIdjMHvSMEoT9TUYxqEqNCG9YnO3HwbzCB1FXaOpjgUoBBkweu+vzz6k30F7MZh76GjqX2BTNSYJpfRHWUX3YDA7tLn6FqyOUyvRBLQE3WMwwUAmpEIT0C0WbtHB9IFcowmkA6WkwsIDushgaoX8AAYydRUWGtBFBZNNVrMqf71cUh90EcHUpXJSIQuQZVssZBQ362DqPOQrf21AOdn4633O86DZBtOHUtauvgP7kbmqkHH/M7tgstm6OFtk2Lx9hIz4UEqz9RsYyiVZ++ubf+5fIyNZVExWSVIlmtHbCsaZr5g+lLKmlVWSROGvG104YprZYMqIq79kcGcLLjSnB85fH+S1oaPyJplsyuruj0/giCsdV/nrmcWmrbmKqQM8N2Ao6TQHowNDpiqmNl2zGn2jyVz7yvkGRpgIpo66StP1CYjGk9MTXlho2iYfTA0lm64USgUD/c6k+5i6G0SmQhyIwnBo+p3PkbBkg9kZ5OFUCIUmr6lPKQ8KJRlM/wuTPZPXIIrrnb7WkpNcH1N/URsQTWfj+5xXSEhSweR0CM0oqXAmE0wfSlmEvgbRfLY+nC+RgCSCyVBSQpII5+yDP9p8XYMoDWstFLOaNZg60MM+JaVmPfdo7WxNWY6+kgGzDQjNEkyGkgyZJZyTB1NPHNiCyI61D+dHTGjSYOoG528gskXOr5WF77eYyGSDP52tW0TWtGtrHSYyScXUs1e4S4Ssq/z1dIoT4KeqmLyzFuXAoXktRxc9mDoCm/TeN6IBnk8xxxm1KasbnW9AlJ9nMW8LGC2YPBKEMif9zKexjiiJGUwJZYF5fderdQGeiGDV953LYf43/dIH8xkiiBLMRFb27P2l6QjxE73+0I8OlBIJnswZftWPt/sqUyJdpTf+sQU/bSN4MLUJe4f5vex770Rd+LD2159gSOciYfzsL1lhc9t3SiKRllnw/mbQYCY2X/l4zHyThlR2vEhI2eyNr0QTxs8jny95rt5hXhUCz2+GDmYqR4N88b+ks6Zo9E1G/hvSLHegkOQF3IaxxBn0efoX8wt60nuwYCY2NdK7GduH3taNAT2fBPI9mhdxsOqSSHNWBGvShlxgMPuu744SAUnI/XXpP5UjJyrQUBJC2Tp16X+PmwhL2r4iDR9C3fovSDB1FNYhDbfR5pYY0DG2aPpfMQLZKpEGh0BdubObsgmNwrbe+xfAJP1c/7Nv/Ac5MZ6DRL8q/XUVc3VMS6uUvAZTeR4uzy0OIYIpW7nOGmgJTO7m9BkT0Temjb/+QjgVmvk7qTD/4GFSvcLPiya+H6tC+oLtXsLpJV//ph+fINyLWh7Pm5B9/D78zyqzAancDe7shQdnBVMHRVLqW4qnU25obelNamRU2vX8K23Q5LH+3X6+mukuVBpip5e8wH/vfN6XDOzEbLIe5B//NZrWSyomLRA/8b+MuzoxmJl/CJsDD+3OXx/8JSewpfLOfpJ/rBf+KvTnuvHXvwd+tgIz8v//13Va7upAA0FDfxFv6/QkcWyJfxxOHou/rusmiFn1Qf3P86RugnCjP+PsP59/DM/r9Gww0qimbJ3uzpFoi4opbXV6g5BCmvSXY5r2Y6dLUp1sr0BLNXm/tgdpSYyaIRgcTH1nWiNN/4AWaY4Bp55e1SMO8RpTMZO80ScR0mwxSdUcnJlBwUy8WhKlaj20ag6tmKyWROMM6mv2DiarJdFZ/qoHTCsNqZislkTjDRqh7RVMrZYF0sfF5MvmkLZXfatm34pZwMYm4f+CFqm2sbqqd9XsG0wrzVgza1ApOAcbeu1COhnMutk14WADm7LL5WCDrKMuTv2hPhUz5D7D2JyRJg2FZ6m1dLIFejSYOuiT0iboPticXabfYUdxqoCcqpjWQikK0BIVsOXoINCpYKa0I7yvP0CLUjcbz611YY52EQ8GUzuoDvYU7GcuTgF7jg4CHauYlgZ9dllsgtN4Vl+rB1+nx4JZwC42Zxeifrh7m0UH31D2BtNwM1ZUaE79pgXQDdIvYdPFoebsoYpptWlQobl/RAVaDD3D1uqb8d7m7N7DuHyK5VAjB3vmO8uTZlenc3OhIeTQ7se73/ylYurQs4M9Vwzl4r2AvQPZ9jZn9zVlLY5oVnLTGtCiGe5vFrvf2BdMiyOaPEuW7ulNjN7Dll8y91Mfs07n7rxDXLFaUpe+juVUfgc7HneP4NytmAVsqfx1DaIOfYEHu+36RIruF9aDeZXwQb80Ix0ILGFH0f1iN5iW+pfV1PdgJHMszW3+lL0fwTS4tImre+goHQgqYcOT7uaLbsW0FEpWS+rL0hv4jwx2g1nADlZL6kWrZgUb9gbTUv+yBFF/H2FD0X7yYx7Tt29l/tLCBuMv/l2Q+y2pN0Pz89JFu5RP7iumPnAru/65HpYG0Sm1Eun7ccpj25S1NPDDYNIYX2BDIf+wFsySCwpoJCtv6E7+8aj7hQFW3vUoMbp5vkL67s/HfdT9woBbEI33Fem7b72aasrqnBTRWCXS99Pgj4UR2RJE57HQ4rofmX2kR4lY8DeIzlPBhgupmFbmLysQnUFH9Cuk74kE08GGCkTnq5C+C0vB5PwlhfAP0ufYlKWlsfAGb6qPyYpJIVh4Hf1XgvkbDOBSPArEwuvInbpxLVFuzDRlHYgoJResmEQJsjT4Q7QUpkZliUJwSJ+dpmz3zE2i3FnqYzKYtBgc/KGlMfEGbymYDkTnYzADY1OWQjCx0o3BpKUxUzGtrEF1IDqfQ/q+WwqmiSYIJc9CxfxuqSn7GERnMHS+lammrJWzbyldZg4FMNXH5OofOpOpimnhDJSWA9F4VlpdpiqmsHRXMkqPgw3/YzBpSQrYcD8qW8EOS7ejp4T48YkCdthrynIAiEay1Nq6D6a1W9uxOUtjWGptmVr503oOouEKGLFarW4fGbrRSov9TBpE+5emDjZ/1P3CCPYzaShLraz7rmUbTGv3nlyDqL8/Ycd9FttgWhsAsvSLphlpM9bBjkr+8aj7hSGFpZ0CNKu/YMtPTdkS9nB0lvooYMtDMHVk1tq0ySsOAtEx/vWxhrFmbHtXu+5G6RK2SChfg+iwt7DlxyDso33fNMRa/4EmYrBaih+DsJYrpnD6BBDtslYtRdl+smo/0f7av7BH2uSXvOM0tfTN+gPsefxLH1O/YW0+U7CvSbssVsvbbnHZPSXvK2ySEVoHWjz/OpBQOtjzU/Z2g1nCJqmaFpsuFJC+OW9gU9n9YtX9wnA/s/XGNweuQYvkX793sHtg2+ODTVn9FyXsesulesvkn/d3sBvKcnfwct9J7Fb7mUIq/ieuCFoW/3y/gu0BwC+739gXzBK2OX99Ai2CtpA2sK3c/cZq35/yP6z0M61XnWvfPHgDypYO9tzA9kHgsj72cvebh24q9BH2vdahc8pQJqEU5b5vHgrmZ+Rhw3DmJ6NQir1FcHXoT2fSnG2xWZsJ7VPKGIKDfXubseLY/TFzaM62pFn7jauDbPPPn2yOz6VSivLQvzgWzFyasy15p71hOG3SLolUypymwg4WvxWOML6S4piNb0JcgZKnb6Sy3LJAXg42Y8WpW73n1JztkkEhVs/E6cKBb8gvlOJoYThVMa2vne2D1TMxeuSkNF0L5Ev2EFeH/uXRipnB2tk+pHre8SSE+UkLxl/SbJUBngL5+nIslOJUU1YsoZo4f31gQOfRCaSMaayRv5M7oFboIfKcZonmILDu6Qny/3L++h3zvHNWaN6QylPvbDTeQpqsu44O+gzif4HS3Avtrs/gi76brvXPz+FD3cyfUQD+d3nhr7d1M6+8ROs+v6e+FVMqmDQzQlbNK//OsRnyF/SHmuvoiApNdf/oH3cJ6q1u3oDlzU3uOVNguSp/Pe1zcFyvYAr/y90g7CFH0kx8hoH0TWLjr1eYTzsoJvvo5BAli4eYRaPPkSzoaIPIzeuNrX+tvOzzB4cEM8bUyeipCq2esms9hZUgFZo+8lf9eLuk4zS1IhZ4GBNgEPe77Dtm0TuYwj8BW4Q//fyccDqku3ZSAtoeCSqDWxUMB1bfmNtK6NCEsP2cJ0ac1rtaiqHBdGj6mqHJ8PHVmBdt4uE8RNYhv7QQ0roZ+JKpDIbvPL2rpegzj/mD/odjLNN77a9v9YjRT31M0letYEOF5jQ/E5XTP055E3kPOsd26LTboIopIlbN1hZN9awG/J12n55UzpTf2SWMTy3Ojfrfr+zs4LTROJdDn/NBFVPo/yDmaqA1RmzP0pHR1FcpXVkMpZL+UQUaajvmOR9cMUWkec1dlb+ejaic0l+dcyrlkM/+Z3kBw+pmpc4NqK8KI17DYnDFFNo/it3vcGgq59Dwb5DmO7v5o010YUUJ6uvj2BbSqIopNDCyV84hrsELERJ8Zx80VJ4yVs3ezloTO6piCq2aU1SBom6Ov+9N39lTOholmx06rJq9nfWcj66YLR+aqfbOPRuyRnXCin7KqKWHKWPVPOns8YQQwXSIO33SqtBzAXArkReQLCTYIjN1XsebhjZ4emTX6KZsa4Lpk5bDwEX0WmHnHnQpkadcz4M6V5ApsbMrppi42TioSSsi7IzpK7tmbEtXafHmTT8Ltgn67IoptHk51ajj4IDpvs85BmD+Rr5K0K5g89RBgim0ik2xprKoR5zLM1M4S2RK34wrUOt9yH25QZqyrQmbtPKiuFyN241SoNkt4RDf01XGm6gjbQO0qMLAgclTglVMMWGTVt4AXmMErezS74s9eFHmHEpVgcSzVeDdQkGDKSYcCX01YrnePRk189fafyod9ZABlSdni+aJynLQZ0cFCjIKO5m6uQVBbKOq5p7H2p7Ed1MPd+eva39J33dR83r+531eL1u0OfKgfcyuull4IP3NmC/W4NMR9cNBUnLJ57/t/JF/8HDGT7UyelRICHWzB/YblqnCyJ0jfUQLpqinWXkzeF6TwqinW/WVohd6ukMUwfuYXRqY2FMUvJU7Te0qZihF1IrZquMfS8GqOYOFVsxJNrxHrZgdsY+lYNWkKVSYaIXbJMHUAZKYJ9nJiGiQEVqiAypEmK88ZKqK2e5CkSZArB/snQ42EcXwYsr5ysmCKXQlTMzFB59q3r6dwns59SquSYMpdNNwrJFamXe8YTgpoKs5NrpPHkwReaeHQ3Oq+xpE5xl8q8gs1HFuiNv1jtUznrpZypirDZasbtaZxnRXs3pGUecbzC1mNktTtss3FWSaI+YWLOevD7UGtGYFpeM+6s6jWU2y8qePetpNt7KcSu4GXcYYAm/Db2o70Ah1fit/kgilSCaYop7n0KwKDzeXbW82K9/7vm8yuX64gatcrvNRdqF0b+Sa5bGVXZkFM5lQiv8gITIC5p9s+XTKcDq9flnLq4+F8pfc6Ovsfcxdq/lOtKNlSnJKJLlgCv1Fmb87FiXvTarzlEkGU/hf2DWahe+LPSGAork/NE5fY0lKNphC91g+BQ99onAqNLtEtkhY0sEUOuUglTP3oyApPnkNPbNwrGjywRR63KRUTg4K0Vhyl4Boh2eFZiKYrc6gEPudNIQM8ry2dKKhqWAK7bCz30l9VGhuXZDsIM8h5oIptDki4ZziJkZjOdCcZNml2XvHmAymkGaJLoCPfdAXHeaQHmmuStP1haWm6y6zwWzpsPcUNwmi9JUw2nTdZT6YonOTIFbPZWqrpJlR11OyCGaL1XORSmRSJbuyCqZg9VyM7KpkV3bBbEn19Jfc/5KLEvIjo/GXuVXJrmyD2dJFCaFvUEvzKNGs3jG1WGCM7IMpOs1bmfvkmlt7KuhdulcLuXnUIoLZkslmXXPL/qcN7fasy6UEsrWoYLY6/U8GNE0SSBkbuMz93KRDFhnM1k5AS9DcKjSbFCSQm9z7kdRTXddyO79tHcYamZMTA+swbmreqY1OqZsTxiWgd/V4DgugoRrjX399YiBplLo5vf2mHmaDhaibVsYQcsMnOab0AnTQ/wEGB2qFJOkcxgAAAABJRU5ErkJggg==;" parent="1" vertex="1">
          <mxGeometry x="1788.89" y="1080" width="50" height="50" as="geometry" />
        </mxCell>
        <mxCell id="SIrYSXtYbPevu4pDanaV-10" value="" style="shape=image;verticalLabelPosition=bottom;labelBackgroundColor=default;verticalAlign=top;imageAspect=0;image=data:image/png,iVBORw0KGgoAAAANSUhEUgAAAOYAAADhCAYAAADcb8kDAAAACXBIWXMAADddAAA3XQEZgEZdAAAAAXNSR0IArs4c6QAAAARnQU1BAACxjwv8YQUAABJ6SURBVHgB7d39edTGFgbwd3nu/9dUkHEFgQoiKghUkKUCoALWFWAqYKkAqMCiApwKrFQQbgW6c6wjLJb9kLQz0pzR+3sexR+BZO3dd898CyAiIqLTVqDk1XXt/IcLvVznX7kTf7XSj9+712q1qkBJYzBn5kPXhu0JmuD9rh/bry8Qh4S00o+3/vqffqx8cG9Bs2IwJ6QhLNAE8Q804XNI031I/fW3fn7LSjsdBjMiH0QJXoGmCspHB9sqNCH96q+SlTUeBjMg7Qs+R1MNC8RrhqZCmsGlv76gCWoFCoLBPJMPY+E//IkmkA7LVvnrs7+++JCWoNEYzBE6YVwj/6o4VoWmmn5kSIdjMHvSMEoT9TUYxqEqNCG9YnO3HwbzCB1FXaOpjgUoBBkweu+vzz6k30F7MZh76GjqX2BTNSYJpfRHWUX3YDA7tLn6FqyOUyvRBLQE3WMwwUAmpEIT0C0WbtHB9IFcowmkA6WkwsIDushgaoX8AAYydRUWGtBFBZNNVrMqf71cUh90EcHUpXJSIQuQZVssZBQ362DqPOQrf21AOdn4633O86DZBtOHUtauvgP7kbmqkHH/M7tgstm6OFtk2Lx9hIz4UEqz9RsYyiVZ++ubf+5fIyNZVExWSVIlmtHbCsaZr5g+lLKmlVWSROGvG104YprZYMqIq79kcGcLLjSnB85fH+S1oaPyJplsyuruj0/giCsdV/nrmcWmrbmKqQM8N2Ao6TQHowNDpiqmNl2zGn2jyVz7yvkGRpgIpo66StP1CYjGk9MTXlho2iYfTA0lm64USgUD/c6k+5i6G0SmQhyIwnBo+p3PkbBkg9kZ5OFUCIUmr6lPKQ8KJRlM/wuTPZPXIIrrnb7WkpNcH1N/URsQTWfj+5xXSEhSweR0CM0oqXAmE0wfSlmEvgbRfLY+nC+RgCSCyVBSQpII5+yDP9p8XYMoDWstFLOaNZg60MM+JaVmPfdo7WxNWY6+kgGzDQjNEkyGkgyZJZyTB1NPHNiCyI61D+dHTGjSYOoG528gskXOr5WF77eYyGSDP52tW0TWtGtrHSYyScXUs1e4S4Ssq/z1dIoT4KeqmLyzFuXAoXktRxc9mDoCm/TeN6IBnk8xxxm1KasbnW9AlJ9nMW8LGC2YPBKEMif9zKexjiiJGUwJZYF5fderdQGeiGDV953LYf43/dIH8xkiiBLMRFb27P2l6QjxE73+0I8OlBIJnswZftWPt/sqUyJdpTf+sQU/bSN4MLUJe4f5vex770Rd+LD2159gSOciYfzsL1lhc9t3SiKRllnw/mbQYCY2X/l4zHyThlR2vEhI2eyNr0QTxs8jny95rt5hXhUCz2+GDmYqR4N88b+ks6Zo9E1G/hvSLHegkOQF3IaxxBn0efoX8wt60nuwYCY2NdK7GduH3taNAT2fBPI9mhdxsOqSSHNWBGvShlxgMPuu744SAUnI/XXpP5UjJyrQUBJC2Tp16X+PmwhL2r4iDR9C3fovSDB1FNYhDbfR5pYY0DG2aPpfMQLZKpEGh0BdubObsgmNwrbe+xfAJP1c/7Nv/Ac5MZ6DRL8q/XUVc3VMS6uUvAZTeR4uzy0OIYIpW7nOGmgJTO7m9BkT0Temjb/+QjgVmvk7qTD/4GFSvcLPiya+H6tC+oLtXsLpJV//ph+fINyLWh7Pm5B9/D78zyqzAancDe7shQdnBVMHRVLqW4qnU25obelNamRU2vX8K23Q5LH+3X6+mukuVBpip5e8wH/vfN6XDOzEbLIe5B//NZrWSyomLRA/8b+MuzoxmJl/CJsDD+3OXx/8JSewpfLOfpJ/rBf+KvTnuvHXvwd+tgIz8v//13Va7upAA0FDfxFv6/QkcWyJfxxOHou/rusmiFn1Qf3P86RugnCjP+PsP59/DM/r9Gww0qimbJ3uzpFoi4opbXV6g5BCmvSXY5r2Y6dLUp1sr0BLNXm/tgdpSYyaIRgcTH1nWiNN/4AWaY4Bp55e1SMO8RpTMZO80ScR0mwxSdUcnJlBwUy8WhKlaj20ag6tmKyWROMM6mv2DiarJdFZ/qoHTCsNqZislkTjDRqh7RVMrZYF0sfF5MvmkLZXfatm34pZwMYm4f+CFqm2sbqqd9XsG0wrzVgza1ApOAcbeu1COhnMutk14WADm7LL5WCDrKMuTv2hPhUz5D7D2JyRJg2FZ6m1dLIFejSYOuiT0iboPticXabfYUdxqoCcqpjWQikK0BIVsOXoINCpYKa0I7yvP0CLUjcbz611YY52EQ8GUzuoDvYU7GcuTgF7jg4CHauYlgZ9dllsgtN4Vl+rB1+nx4JZwC42Zxeifrh7m0UH31D2BtNwM1ZUaE79pgXQDdIvYdPFoebsoYpptWlQobl/RAVaDD3D1uqb8d7m7N7DuHyK5VAjB3vmO8uTZlenc3OhIeTQ7se73/ylYurQs4M9Vwzl4r2AvQPZ9jZn9zVlLY5oVnLTGtCiGe5vFrvf2BdMiyOaPEuW7ulNjN7Dll8y91Mfs07n7rxDXLFaUpe+juVUfgc7HneP4NytmAVsqfx1DaIOfYEHu+36RIruF9aDeZXwQb80Ix0ILGFH0f1iN5iW+pfV1PdgJHMszW3+lL0fwTS4tImre+goHQgqYcOT7uaLbsW0FEpWS+rL0hv4jwx2g1nADlZL6kWrZgUb9gbTUv+yBFF/H2FD0X7yYx7Tt29l/tLCBuMv/l2Q+y2pN0Pz89JFu5RP7iumPnAru/65HpYG0Sm1Eun7ccpj25S1NPDDYNIYX2BDIf+wFsySCwpoJCtv6E7+8aj7hQFW3vUoMbp5vkL67s/HfdT9woBbEI33Fem7b72aasrqnBTRWCXS99Pgj4UR2RJE57HQ4rofmX2kR4lY8DeIzlPBhgupmFbmLysQnUFH9Cuk74kE08GGCkTnq5C+C0vB5PwlhfAP0ufYlKWlsfAGb6qPyYpJIVh4Hf1XgvkbDOBSPArEwuvInbpxLVFuzDRlHYgoJResmEQJsjT4Q7QUpkZliUJwSJ+dpmz3zE2i3FnqYzKYtBgc/KGlMfEGbymYDkTnYzADY1OWQjCx0o3BpKUxUzGtrEF1IDqfQ/q+WwqmiSYIJc9CxfxuqSn7GERnMHS+lammrJWzbyldZg4FMNXH5OofOpOpimnhDJSWA9F4VlpdpiqmsHRXMkqPgw3/YzBpSQrYcD8qW8EOS7ejp4T48YkCdthrynIAiEay1Nq6D6a1W9uxOUtjWGptmVr503oOouEKGLFarW4fGbrRSov9TBpE+5emDjZ/1P3CCPYzaShLraz7rmUbTGv3nlyDqL8/Ycd9FttgWhsAsvSLphlpM9bBjkr+8aj7hSGFpZ0CNKu/YMtPTdkS9nB0lvooYMtDMHVk1tq0ySsOAtEx/vWxhrFmbHtXu+5G6RK2SChfg+iwt7DlxyDso33fNMRa/4EmYrBaih+DsJYrpnD6BBDtslYtRdl+smo/0f7av7BH2uSXvOM0tfTN+gPsefxLH1O/YW0+U7CvSbssVsvbbnHZPSXvK2ySEVoHWjz/OpBQOtjzU/Z2g1nCJqmaFpsuFJC+OW9gU9n9YtX9wnA/s/XGNweuQYvkX793sHtg2+ODTVn9FyXsesulesvkn/d3sBvKcnfwct9J7Fb7mUIq/ieuCFoW/3y/gu0BwC+739gXzBK2OX99Ai2CtpA2sK3c/cZq35/yP6z0M61XnWvfPHgDypYO9tzA9kHgsj72cvebh24q9BH2vdahc8pQJqEU5b5vHgrmZ+Rhw3DmJ6NQir1FcHXoT2fSnG2xWZsJ7VPKGIKDfXubseLY/TFzaM62pFn7jauDbPPPn2yOz6VSivLQvzgWzFyasy15p71hOG3SLolUypymwg4WvxWOML6S4piNb0JcgZKnb6Sy3LJAXg42Y8WpW73n1JztkkEhVs/E6cKBb8gvlOJoYThVMa2vne2D1TMxeuSkNF0L5Ev2EFeH/uXRipnB2tk+pHre8SSE+UkLxl/SbJUBngL5+nIslOJUU1YsoZo4f31gQOfRCaSMaayRv5M7oFboIfKcZonmILDu6Qny/3L++h3zvHNWaN6QylPvbDTeQpqsu44O+gzif4HS3Avtrs/gi76brvXPz+FD3cyfUQD+d3nhr7d1M6+8ROs+v6e+FVMqmDQzQlbNK//OsRnyF/SHmuvoiApNdf/oH3cJ6q1u3oDlzU3uOVNguSp/Pe1zcFyvYAr/y90g7CFH0kx8hoH0TWLjr1eYTzsoJvvo5BAli4eYRaPPkSzoaIPIzeuNrX+tvOzzB4cEM8bUyeipCq2esms9hZUgFZo+8lf9eLuk4zS1IhZ4GBNgEPe77Dtm0TuYwj8BW4Q//fyccDqku3ZSAtoeCSqDWxUMB1bfmNtK6NCEsP2cJ0ac1rtaiqHBdGj6mqHJ8PHVmBdt4uE8RNYhv7QQ0roZ+JKpDIbvPL2rpegzj/mD/odjLNN77a9v9YjRT31M0letYEOF5jQ/E5XTP055E3kPOsd26LTboIopIlbN1hZN9awG/J12n55UzpTf2SWMTy3Ojfrfr+zs4LTROJdDn/NBFVPo/yDmaqA1RmzP0pHR1FcpXVkMpZL+UQUaajvmOR9cMUWkec1dlb+ejaic0l+dcyrlkM/+Z3kBw+pmpc4NqK8KI17DYnDFFNo/it3vcGgq59Dwb5DmO7v5o010YUUJ6uvj2BbSqIopNDCyV84hrsELERJ8Zx80VJ4yVs3ezloTO6piCq2aU1SBom6Ov+9N39lTOholmx06rJq9nfWcj66YLR+aqfbOPRuyRnXCin7KqKWHKWPVPOns8YQQwXSIO33SqtBzAXArkReQLCTYIjN1XsebhjZ4emTX6KZsa4Lpk5bDwEX0WmHnHnQpkadcz4M6V5ApsbMrppi42TioSSsi7IzpK7tmbEtXafHmTT8Ltgn67IoptHk51ajj4IDpvs85BmD+Rr5K0K5g89RBgim0ik2xprKoR5zLM1M4S2RK34wrUOt9yH25QZqyrQmbtPKiuFyN241SoNkt4RDf01XGm6gjbQO0qMLAgclTglVMMWGTVt4AXmMErezS74s9eFHmHEpVgcSzVeDdQkGDKSYcCX01YrnePRk189fafyod9ZABlSdni+aJynLQZ0cFCjIKO5m6uQVBbKOq5p7H2p7Ed1MPd+eva39J33dR83r+531eL1u0OfKgfcyuull4IP3NmC/W4NMR9cNBUnLJ57/t/JF/8HDGT7UyelRICHWzB/YblqnCyJ0jfUQLpqinWXkzeF6TwqinW/WVohd6ukMUwfuYXRqY2FMUvJU7Te0qZihF1IrZquMfS8GqOYOFVsxJNrxHrZgdsY+lYNWkKVSYaIXbJMHUAZKYJ9nJiGiQEVqiAypEmK88ZKqK2e5CkSZArB/snQ42EcXwYsr5ysmCKXQlTMzFB59q3r6dwns59SquSYMpdNNwrJFamXe8YTgpoKs5NrpPHkwReaeHQ3Oq+xpE5xl8q8gs1HFuiNv1jtUznrpZypirDZasbtaZxnRXs3pGUecbzC1mNktTtss3FWSaI+YWLOevD7UGtGYFpeM+6s6jWU2y8qePetpNt7KcSu4GXcYYAm/Db2o70Ah1fit/kgilSCaYop7n0KwKDzeXbW82K9/7vm8yuX64gatcrvNRdqF0b+Sa5bGVXZkFM5lQiv8gITIC5p9s+XTKcDq9flnLq4+F8pfc6Ovsfcxdq/lOtKNlSnJKJLlgCv1Fmb87FiXvTarzlEkGU/hf2DWahe+LPSGAork/NE5fY0lKNphC91g+BQ99onAqNLtEtkhY0sEUOuUglTP3oyApPnkNPbNwrGjywRR63KRUTg4K0Vhyl4Boh2eFZiKYrc6gEPudNIQM8ry2dKKhqWAK7bCz30l9VGhuXZDsIM8h5oIptDki4ZziJkZjOdCcZNml2XvHmAymkGaJLoCPfdAXHeaQHmmuStP1haWm6y6zwWzpsPcUNwmi9JUw2nTdZT6YonOTIFbPZWqrpJlR11OyCGaL1XORSmRSJbuyCqZg9VyM7KpkV3bBbEn19Jfc/5KLEvIjo/GXuVXJrmyD2dJFCaFvUEvzKNGs3jG1WGCM7IMpOs1bmfvkmlt7KuhdulcLuXnUIoLZkslmXXPL/qcN7fasy6UEsrWoYLY6/U8GNE0SSBkbuMz93KRDFhnM1k5AS9DcKjSbFCSQm9z7kdRTXddyO79tHcYamZMTA+swbmreqY1OqZsTxiWgd/V4DgugoRrjX399YiBplLo5vf2mHmaDhaibVsYQcsMnOab0AnTQ/wEGB2qFJOkcxgAAAABJRU5ErkJggg==;" parent="1" vertex="1">
          <mxGeometry x="2908.8900000000003" y="1080" width="50" height="50" as="geometry" />
        </mxCell>
        <mxCell id="SIrYSXtYbPevu4pDanaV-11" value="" style="shape=image;verticalLabelPosition=bottom;labelBackgroundColor=default;verticalAlign=top;imageAspect=0;image=data:image/png,iVBORw0KGgoAAAANSUhEUgAAAOYAAADhCAYAAADcb8kDAAAACXBIWXMAADddAAA3XQEZgEZdAAAAAXNSR0IArs4c6QAAAARnQU1BAACxjwv8YQUAABJ6SURBVHgB7d39edTGFgbwd3nu/9dUkHEFgQoiKghUkKUCoALWFWAqYKkAqMCiApwKrFQQbgW6c6wjLJb9kLQz0pzR+3sexR+BZO3dd898CyAiIqLTVqDk1XXt/IcLvVznX7kTf7XSj9+712q1qkBJYzBn5kPXhu0JmuD9rh/bry8Qh4S00o+3/vqffqx8cG9Bs2IwJ6QhLNAE8Q804XNI031I/fW3fn7LSjsdBjMiH0QJXoGmCspHB9sqNCH96q+SlTUeBjMg7Qs+R1MNC8RrhqZCmsGlv76gCWoFCoLBPJMPY+E//IkmkA7LVvnrs7+++JCWoNEYzBE6YVwj/6o4VoWmmn5kSIdjMHvSMEoT9TUYxqEqNCG9YnO3HwbzCB1FXaOpjgUoBBkweu+vzz6k30F7MZh76GjqX2BTNSYJpfRHWUX3YDA7tLn6FqyOUyvRBLQE3WMwwUAmpEIT0C0WbtHB9IFcowmkA6WkwsIDushgaoX8AAYydRUWGtBFBZNNVrMqf71cUh90EcHUpXJSIQuQZVssZBQ362DqPOQrf21AOdn4633O86DZBtOHUtauvgP7kbmqkHH/M7tgstm6OFtk2Lx9hIz4UEqz9RsYyiVZ++ubf+5fIyNZVExWSVIlmtHbCsaZr5g+lLKmlVWSROGvG104YprZYMqIq79kcGcLLjSnB85fH+S1oaPyJplsyuruj0/giCsdV/nrmcWmrbmKqQM8N2Ao6TQHowNDpiqmNl2zGn2jyVz7yvkGRpgIpo66StP1CYjGk9MTXlho2iYfTA0lm64USgUD/c6k+5i6G0SmQhyIwnBo+p3PkbBkg9kZ5OFUCIUmr6lPKQ8KJRlM/wuTPZPXIIrrnb7WkpNcH1N/URsQTWfj+5xXSEhSweR0CM0oqXAmE0wfSlmEvgbRfLY+nC+RgCSCyVBSQpII5+yDP9p8XYMoDWstFLOaNZg60MM+JaVmPfdo7WxNWY6+kgGzDQjNEkyGkgyZJZyTB1NPHNiCyI61D+dHTGjSYOoG528gskXOr5WF77eYyGSDP52tW0TWtGtrHSYyScXUs1e4S4Ssq/z1dIoT4KeqmLyzFuXAoXktRxc9mDoCm/TeN6IBnk8xxxm1KasbnW9AlJ9nMW8LGC2YPBKEMif9zKexjiiJGUwJZYF5fderdQGeiGDV953LYf43/dIH8xkiiBLMRFb27P2l6QjxE73+0I8OlBIJnswZftWPt/sqUyJdpTf+sQU/bSN4MLUJe4f5vex770Rd+LD2159gSOciYfzsL1lhc9t3SiKRllnw/mbQYCY2X/l4zHyThlR2vEhI2eyNr0QTxs8jny95rt5hXhUCz2+GDmYqR4N88b+ks6Zo9E1G/hvSLHegkOQF3IaxxBn0efoX8wt60nuwYCY2NdK7GduH3taNAT2fBPI9mhdxsOqSSHNWBGvShlxgMPuu744SAUnI/XXpP5UjJyrQUBJC2Tp16X+PmwhL2r4iDR9C3fovSDB1FNYhDbfR5pYY0DG2aPpfMQLZKpEGh0BdubObsgmNwrbe+xfAJP1c/7Nv/Ac5MZ6DRL8q/XUVc3VMS6uUvAZTeR4uzy0OIYIpW7nOGmgJTO7m9BkT0Temjb/+QjgVmvk7qTD/4GFSvcLPiya+H6tC+oLtXsLpJV//ph+fINyLWh7Pm5B9/D78zyqzAancDe7shQdnBVMHRVLqW4qnU25obelNamRU2vX8K23Q5LH+3X6+mukuVBpip5e8wH/vfN6XDOzEbLIe5B//NZrWSyomLRA/8b+MuzoxmJl/CJsDD+3OXx/8JSewpfLOfpJ/rBf+KvTnuvHXvwd+tgIz8v//13Va7upAA0FDfxFv6/QkcWyJfxxOHou/rusmiFn1Qf3P86RugnCjP+PsP59/DM/r9Gww0qimbJ3uzpFoi4opbXV6g5BCmvSXY5r2Y6dLUp1sr0BLNXm/tgdpSYyaIRgcTH1nWiNN/4AWaY4Bp55e1SMO8RpTMZO80ScR0mwxSdUcnJlBwUy8WhKlaj20ag6tmKyWROMM6mv2DiarJdFZ/qoHTCsNqZislkTjDRqh7RVMrZYF0sfF5MvmkLZXfatm34pZwMYm4f+CFqm2sbqqd9XsG0wrzVgza1ApOAcbeu1COhnMutk14WADm7LL5WCDrKMuTv2hPhUz5D7D2JyRJg2FZ6m1dLIFejSYOuiT0iboPticXabfYUdxqoCcqpjWQikK0BIVsOXoINCpYKa0I7yvP0CLUjcbz611YY52EQ8GUzuoDvYU7GcuTgF7jg4CHauYlgZ9dllsgtN4Vl+rB1+nx4JZwC42Zxeifrh7m0UH31D2BtNwM1ZUaE79pgXQDdIvYdPFoebsoYpptWlQobl/RAVaDD3D1uqb8d7m7N7DuHyK5VAjB3vmO8uTZlenc3OhIeTQ7se73/ylYurQs4M9Vwzl4r2AvQPZ9jZn9zVlLY5oVnLTGtCiGe5vFrvf2BdMiyOaPEuW7ulNjN7Dll8y91Mfs07n7rxDXLFaUpe+juVUfgc7HneP4NytmAVsqfx1DaIOfYEHu+36RIruF9aDeZXwQb80Ix0ILGFH0f1iN5iW+pfV1PdgJHMszW3+lL0fwTS4tImre+goHQgqYcOT7uaLbsW0FEpWS+rL0hv4jwx2g1nADlZL6kWrZgUb9gbTUv+yBFF/H2FD0X7yYx7Tt29l/tLCBuMv/l2Q+y2pN0Pz89JFu5RP7iumPnAru/65HpYG0Sm1Eun7ccpj25S1NPDDYNIYX2BDIf+wFsySCwpoJCtv6E7+8aj7hQFW3vUoMbp5vkL67s/HfdT9woBbEI33Fem7b72aasrqnBTRWCXS99Pgj4UR2RJE57HQ4rofmX2kR4lY8DeIzlPBhgupmFbmLysQnUFH9Cuk74kE08GGCkTnq5C+C0vB5PwlhfAP0ufYlKWlsfAGb6qPyYpJIVh4Hf1XgvkbDOBSPArEwuvInbpxLVFuzDRlHYgoJResmEQJsjT4Q7QUpkZliUJwSJ+dpmz3zE2i3FnqYzKYtBgc/KGlMfEGbymYDkTnYzADY1OWQjCx0o3BpKUxUzGtrEF1IDqfQ/q+WwqmiSYIJc9CxfxuqSn7GERnMHS+lammrJWzbyldZg4FMNXH5OofOpOpimnhDJSWA9F4VlpdpiqmsHRXMkqPgw3/YzBpSQrYcD8qW8EOS7ejp4T48YkCdthrynIAiEay1Nq6D6a1W9uxOUtjWGptmVr503oOouEKGLFarW4fGbrRSov9TBpE+5emDjZ/1P3CCPYzaShLraz7rmUbTGv3nlyDqL8/Ycd9FttgWhsAsvSLphlpM9bBjkr+8aj7hSGFpZ0CNKu/YMtPTdkS9nB0lvooYMtDMHVk1tq0ySsOAtEx/vWxhrFmbHtXu+5G6RK2SChfg+iwt7DlxyDso33fNMRa/4EmYrBaih+DsJYrpnD6BBDtslYtRdl+smo/0f7av7BH2uSXvOM0tfTN+gPsefxLH1O/YW0+U7CvSbssVsvbbnHZPSXvK2ySEVoHWjz/OpBQOtjzU/Z2g1nCJqmaFpsuFJC+OW9gU9n9YtX9wnA/s/XGNweuQYvkX793sHtg2+ODTVn9FyXsesulesvkn/d3sBvKcnfwct9J7Fb7mUIq/ieuCFoW/3y/gu0BwC+739gXzBK2OX99Ai2CtpA2sK3c/cZq35/yP6z0M61XnWvfPHgDypYO9tzA9kHgsj72cvebh24q9BH2vdahc8pQJqEU5b5vHgrmZ+Rhw3DmJ6NQir1FcHXoT2fSnG2xWZsJ7VPKGIKDfXubseLY/TFzaM62pFn7jauDbPPPn2yOz6VSivLQvzgWzFyasy15p71hOG3SLolUypymwg4WvxWOML6S4piNb0JcgZKnb6Sy3LJAXg42Y8WpW73n1JztkkEhVs/E6cKBb8gvlOJoYThVMa2vne2D1TMxeuSkNF0L5Ev2EFeH/uXRipnB2tk+pHre8SSE+UkLxl/SbJUBngL5+nIslOJUU1YsoZo4f31gQOfRCaSMaayRv5M7oFboIfKcZonmILDu6Qny/3L++h3zvHNWaN6QylPvbDTeQpqsu44O+gzif4HS3Avtrs/gi76brvXPz+FD3cyfUQD+d3nhr7d1M6+8ROs+v6e+FVMqmDQzQlbNK//OsRnyF/SHmuvoiApNdf/oH3cJ6q1u3oDlzU3uOVNguSp/Pe1zcFyvYAr/y90g7CFH0kx8hoH0TWLjr1eYTzsoJvvo5BAli4eYRaPPkSzoaIPIzeuNrX+tvOzzB4cEM8bUyeipCq2esms9hZUgFZo+8lf9eLuk4zS1IhZ4GBNgEPe77Dtm0TuYwj8BW4Q//fyccDqku3ZSAtoeCSqDWxUMB1bfmNtK6NCEsP2cJ0ac1rtaiqHBdGj6mqHJ8PHVmBdt4uE8RNYhv7QQ0roZ+JKpDIbvPL2rpegzj/mD/odjLNN77a9v9YjRT31M0letYEOF5jQ/E5XTP055E3kPOsd26LTboIopIlbN1hZN9awG/J12n55UzpTf2SWMTy3Ojfrfr+zs4LTROJdDn/NBFVPo/yDmaqA1RmzP0pHR1FcpXVkMpZL+UQUaajvmOR9cMUWkec1dlb+ejaic0l+dcyrlkM/+Z3kBw+pmpc4NqK8KI17DYnDFFNo/it3vcGgq59Dwb5DmO7v5o010YUUJ6uvj2BbSqIopNDCyV84hrsELERJ8Zx80VJ4yVs3ezloTO6piCq2aU1SBom6Ov+9N39lTOholmx06rJq9nfWcj66YLR+aqfbOPRuyRnXCin7KqKWHKWPVPOns8YQQwXSIO33SqtBzAXArkReQLCTYIjN1XsebhjZ4emTX6KZsa4Lpk5bDwEX0WmHnHnQpkadcz4M6V5ApsbMrppi42TioSSsi7IzpK7tmbEtXafHmTT8Ltgn67IoptHk51ajj4IDpvs85BmD+Rr5K0K5g89RBgim0ik2xprKoR5zLM1M4S2RK34wrUOt9yH25QZqyrQmbtPKiuFyN241SoNkt4RDf01XGm6gjbQO0qMLAgclTglVMMWGTVt4AXmMErezS74s9eFHmHEpVgcSzVeDdQkGDKSYcCX01YrnePRk189fafyod9ZABlSdni+aJynLQZ0cFCjIKO5m6uQVBbKOq5p7H2p7Ed1MPd+eva39J33dR83r+531eL1u0OfKgfcyuull4IP3NmC/W4NMR9cNBUnLJ57/t/JF/8HDGT7UyelRICHWzB/YblqnCyJ0jfUQLpqinWXkzeF6TwqinW/WVohd6ukMUwfuYXRqY2FMUvJU7Te0qZihF1IrZquMfS8GqOYOFVsxJNrxHrZgdsY+lYNWkKVSYaIXbJMHUAZKYJ9nJiGiQEVqiAypEmK88ZKqK2e5CkSZArB/snQ42EcXwYsr5ysmCKXQlTMzFB59q3r6dwns59SquSYMpdNNwrJFamXe8YTgpoKs5NrpPHkwReaeHQ3Oq+xpE5xl8q8gs1HFuiNv1jtUznrpZypirDZasbtaZxnRXs3pGUecbzC1mNktTtss3FWSaI+YWLOevD7UGtGYFpeM+6s6jWU2y8qePetpNt7KcSu4GXcYYAm/Db2o70Ah1fit/kgilSCaYop7n0KwKDzeXbW82K9/7vm8yuX64gatcrvNRdqF0b+Sa5bGVXZkFM5lQiv8gITIC5p9s+XTKcDq9flnLq4+F8pfc6Ovsfcxdq/lOtKNlSnJKJLlgCv1Fmb87FiXvTarzlEkGU/hf2DWahe+LPSGAork/NE5fY0lKNphC91g+BQ99onAqNLtEtkhY0sEUOuUglTP3oyApPnkNPbNwrGjywRR63KRUTg4K0Vhyl4Boh2eFZiKYrc6gEPudNIQM8ry2dKKhqWAK7bCz30l9VGhuXZDsIM8h5oIptDki4ZziJkZjOdCcZNml2XvHmAymkGaJLoCPfdAXHeaQHmmuStP1haWm6y6zwWzpsPcUNwmi9JUw2nTdZT6YonOTIFbPZWqrpJlR11OyCGaL1XORSmRSJbuyCqZg9VyM7KpkV3bBbEn19Jfc/5KLEvIjo/GXuVXJrmyD2dJFCaFvUEvzKNGs3jG1WGCM7IMpOs1bmfvkmlt7KuhdulcLuXnUIoLZkslmXXPL/qcN7fasy6UEsrWoYLY6/U8GNE0SSBkbuMz93KRDFhnM1k5AS9DcKjSbFCSQm9z7kdRTXddyO79tHcYamZMTA+swbmreqY1OqZsTxiWgd/V4DgugoRrjX399YiBplLo5vf2mHmaDhaibVsYQcsMnOab0AnTQ/wEGB2qFJOkcxgAAAABJRU5ErkJggg==;" parent="1" vertex="1">
          <mxGeometry x="1788.89" y="-240" width="50" height="50" as="geometry" />
        </mxCell>
        <mxCell id="SIrYSXtYbPevu4pDanaV-12" value="" style="shape=image;verticalLabelPosition=bottom;labelBackgroundColor=default;verticalAlign=top;imageAspect=0;image=data:image/png,iVBORw0KGgoAAAANSUhEUgAAAOYAAADhCAYAAADcb8kDAAAACXBIWXMAADddAAA3XQEZgEZdAAAAAXNSR0IArs4c6QAAAARnQU1BAACxjwv8YQUAABJ6SURBVHgB7d39edTGFgbwd3nu/9dUkHEFgQoiKghUkKUCoALWFWAqYKkAqMCiApwKrFQQbgW6c6wjLJb9kLQz0pzR+3sexR+BZO3dd898CyAiIqLTVqDk1XXt/IcLvVznX7kTf7XSj9+712q1qkBJYzBn5kPXhu0JmuD9rh/bry8Qh4S00o+3/vqffqx8cG9Bs2IwJ6QhLNAE8Q804XNI031I/fW3fn7LSjsdBjMiH0QJXoGmCspHB9sqNCH96q+SlTUeBjMg7Qs+R1MNC8RrhqZCmsGlv76gCWoFCoLBPJMPY+E//IkmkA7LVvnrs7+++JCWoNEYzBE6YVwj/6o4VoWmmn5kSIdjMHvSMEoT9TUYxqEqNCG9YnO3HwbzCB1FXaOpjgUoBBkweu+vzz6k30F7MZh76GjqX2BTNSYJpfRHWUX3YDA7tLn6FqyOUyvRBLQE3WMwwUAmpEIT0C0WbtHB9IFcowmkA6WkwsIDushgaoX8AAYydRUWGtBFBZNNVrMqf71cUh90EcHUpXJSIQuQZVssZBQ362DqPOQrf21AOdn4633O86DZBtOHUtauvgP7kbmqkHH/M7tgstm6OFtk2Lx9hIz4UEqz9RsYyiVZ++ubf+5fIyNZVExWSVIlmtHbCsaZr5g+lLKmlVWSROGvG104YprZYMqIq79kcGcLLjSnB85fH+S1oaPyJplsyuruj0/giCsdV/nrmcWmrbmKqQM8N2Ao6TQHowNDpiqmNl2zGn2jyVz7yvkGRpgIpo66StP1CYjGk9MTXlho2iYfTA0lm64USgUD/c6k+5i6G0SmQhyIwnBo+p3PkbBkg9kZ5OFUCIUmr6lPKQ8KJRlM/wuTPZPXIIrrnb7WkpNcH1N/URsQTWfj+5xXSEhSweR0CM0oqXAmE0wfSlmEvgbRfLY+nC+RgCSCyVBSQpII5+yDP9p8XYMoDWstFLOaNZg60MM+JaVmPfdo7WxNWY6+kgGzDQjNEkyGkgyZJZyTB1NPHNiCyI61D+dHTGjSYOoG528gskXOr5WF77eYyGSDP52tW0TWtGtrHSYyScXUs1e4S4Ssq/z1dIoT4KeqmLyzFuXAoXktRxc9mDoCm/TeN6IBnk8xxxm1KasbnW9AlJ9nMW8LGC2YPBKEMif9zKexjiiJGUwJZYF5fderdQGeiGDV953LYf43/dIH8xkiiBLMRFb27P2l6QjxE73+0I8OlBIJnswZftWPt/sqUyJdpTf+sQU/bSN4MLUJe4f5vex770Rd+LD2159gSOciYfzsL1lhc9t3SiKRllnw/mbQYCY2X/l4zHyThlR2vEhI2eyNr0QTxs8jny95rt5hXhUCz2+GDmYqR4N88b+ks6Zo9E1G/hvSLHegkOQF3IaxxBn0efoX8wt60nuwYCY2NdK7GduH3taNAT2fBPI9mhdxsOqSSHNWBGvShlxgMPuu744SAUnI/XXpP5UjJyrQUBJC2Tp16X+PmwhL2r4iDR9C3fovSDB1FNYhDbfR5pYY0DG2aPpfMQLZKpEGh0BdubObsgmNwrbe+xfAJP1c/7Nv/Ac5MZ6DRL8q/XUVc3VMS6uUvAZTeR4uzy0OIYIpW7nOGmgJTO7m9BkT0Temjb/+QjgVmvk7qTD/4GFSvcLPiya+H6tC+oLtXsLpJV//ph+fINyLWh7Pm5B9/D78zyqzAancDe7shQdnBVMHRVLqW4qnU25obelNamRU2vX8K23Q5LH+3X6+mukuVBpip5e8wH/vfN6XDOzEbLIe5B//NZrWSyomLRA/8b+MuzoxmJl/CJsDD+3OXx/8JSewpfLOfpJ/rBf+KvTnuvHXvwd+tgIz8v//13Va7upAA0FDfxFv6/QkcWyJfxxOHou/rusmiFn1Qf3P86RugnCjP+PsP59/DM/r9Gww0qimbJ3uzpFoi4opbXV6g5BCmvSXY5r2Y6dLUp1sr0BLNXm/tgdpSYyaIRgcTH1nWiNN/4AWaY4Bp55e1SMO8RpTMZO80ScR0mwxSdUcnJlBwUy8WhKlaj20ag6tmKyWROMM6mv2DiarJdFZ/qoHTCsNqZislkTjDRqh7RVMrZYF0sfF5MvmkLZXfatm34pZwMYm4f+CFqm2sbqqd9XsG0wrzVgza1ApOAcbeu1COhnMutk14WADm7LL5WCDrKMuTv2hPhUz5D7D2JyRJg2FZ6m1dLIFejSYOuiT0iboPticXabfYUdxqoCcqpjWQikK0BIVsOXoINCpYKa0I7yvP0CLUjcbz611YY52EQ8GUzuoDvYU7GcuTgF7jg4CHauYlgZ9dllsgtN4Vl+rB1+nx4JZwC42Zxeifrh7m0UH31D2BtNwM1ZUaE79pgXQDdIvYdPFoebsoYpptWlQobl/RAVaDD3D1uqb8d7m7N7DuHyK5VAjB3vmO8uTZlenc3OhIeTQ7se73/ylYurQs4M9Vwzl4r2AvQPZ9jZn9zVlLY5oVnLTGtCiGe5vFrvf2BdMiyOaPEuW7ulNjN7Dll8y91Mfs07n7rxDXLFaUpe+juVUfgc7HneP4NytmAVsqfx1DaIOfYEHu+36RIruF9aDeZXwQb80Ix0ILGFH0f1iN5iW+pfV1PdgJHMszW3+lL0fwTS4tImre+goHQgqYcOT7uaLbsW0FEpWS+rL0hv4jwx2g1nADlZL6kWrZgUb9gbTUv+yBFF/H2FD0X7yYx7Tt29l/tLCBuMv/l2Q+y2pN0Pz89JFu5RP7iumPnAru/65HpYG0Sm1Eun7ccpj25S1NPDDYNIYX2BDIf+wFsySCwpoJCtv6E7+8aj7hQFW3vUoMbp5vkL67s/HfdT9woBbEI33Fem7b72aasrqnBTRWCXS99Pgj4UR2RJE57HQ4rofmX2kR4lY8DeIzlPBhgupmFbmLysQnUFH9Cuk74kE08GGCkTnq5C+C0vB5PwlhfAP0ufYlKWlsfAGb6qPyYpJIVh4Hf1XgvkbDOBSPArEwuvInbpxLVFuzDRlHYgoJResmEQJsjT4Q7QUpkZliUJwSJ+dpmz3zE2i3FnqYzKYtBgc/KGlMfEGbymYDkTnYzADY1OWQjCx0o3BpKUxUzGtrEF1IDqfQ/q+WwqmiSYIJc9CxfxuqSn7GERnMHS+lammrJWzbyldZg4FMNXH5OofOpOpimnhDJSWA9F4VlpdpiqmsHRXMkqPgw3/YzBpSQrYcD8qW8EOS7ejp4T48YkCdthrynIAiEay1Nq6D6a1W9uxOUtjWGptmVr503oOouEKGLFarW4fGbrRSov9TBpE+5emDjZ/1P3CCPYzaShLraz7rmUbTGv3nlyDqL8/Ycd9FttgWhsAsvSLphlpM9bBjkr+8aj7hSGFpZ0CNKu/YMtPTdkS9nB0lvooYMtDMHVk1tq0ySsOAtEx/vWxhrFmbHtXu+5G6RK2SChfg+iwt7DlxyDso33fNMRa/4EmYrBaih+DsJYrpnD6BBDtslYtRdl+smo/0f7av7BH2uSXvOM0tfTN+gPsefxLH1O/YW0+U7CvSbssVsvbbnHZPSXvK2ySEVoHWjz/OpBQOtjzU/Z2g1nCJqmaFpsuFJC+OW9gU9n9YtX9wnA/s/XGNweuQYvkX793sHtg2+ODTVn9FyXsesulesvkn/d3sBvKcnfwct9J7Fb7mUIq/ieuCFoW/3y/gu0BwC+739gXzBK2OX99Ai2CtpA2sK3c/cZq35/yP6z0M61XnWvfPHgDypYO9tzA9kHgsj72cvebh24q9BH2vdahc8pQJqEU5b5vHgrmZ+Rhw3DmJ6NQir1FcHXoT2fSnG2xWZsJ7VPKGIKDfXubseLY/TFzaM62pFn7jauDbPPPn2yOz6VSivLQvzgWzFyasy15p71hOG3SLolUypymwg4WvxWOML6S4piNb0JcgZKnb6Sy3LJAXg42Y8WpW73n1JztkkEhVs/E6cKBb8gvlOJoYThVMa2vne2D1TMxeuSkNF0L5Ev2EFeH/uXRipnB2tk+pHre8SSE+UkLxl/SbJUBngL5+nIslOJUU1YsoZo4f31gQOfRCaSMaayRv5M7oFboIfKcZonmILDu6Qny/3L++h3zvHNWaN6QylPvbDTeQpqsu44O+gzif4HS3Avtrs/gi76brvXPz+FD3cyfUQD+d3nhr7d1M6+8ROs+v6e+FVMqmDQzQlbNK//OsRnyF/SHmuvoiApNdf/oH3cJ6q1u3oDlzU3uOVNguSp/Pe1zcFyvYAr/y90g7CFH0kx8hoH0TWLjr1eYTzsoJvvo5BAli4eYRaPPkSzoaIPIzeuNrX+tvOzzB4cEM8bUyeipCq2esms9hZUgFZo+8lf9eLuk4zS1IhZ4GBNgEPe77Dtm0TuYwj8BW4Q//fyccDqku3ZSAtoeCSqDWxUMB1bfmNtK6NCEsP2cJ0ac1rtaiqHBdGj6mqHJ8PHVmBdt4uE8RNYhv7QQ0roZ+JKpDIbvPL2rpegzj/mD/odjLNN77a9v9YjRT31M0letYEOF5jQ/E5XTP055E3kPOsd26LTboIopIlbN1hZN9awG/J12n55UzpTf2SWMTy3Ojfrfr+zs4LTROJdDn/NBFVPo/yDmaqA1RmzP0pHR1FcpXVkMpZL+UQUaajvmOR9cMUWkec1dlb+ejaic0l+dcyrlkM/+Z3kBw+pmpc4NqK8KI17DYnDFFNo/it3vcGgq59Dwb5DmO7v5o010YUUJ6uvj2BbSqIopNDCyV84hrsELERJ8Zx80VJ4yVs3ezloTO6piCq2aU1SBom6Ov+9N39lTOholmx06rJq9nfWcj66YLR+aqfbOPRuyRnXCin7KqKWHKWPVPOns8YQQwXSIO33SqtBzAXArkReQLCTYIjN1XsebhjZ4emTX6KZsa4Lpk5bDwEX0WmHnHnQpkadcz4M6V5ApsbMrppi42TioSSsi7IzpK7tmbEtXafHmTT8Ltgn67IoptHk51ajj4IDpvs85BmD+Rr5K0K5g89RBgim0ik2xprKoR5zLM1M4S2RK34wrUOt9yH25QZqyrQmbtPKiuFyN241SoNkt4RDf01XGm6gjbQO0qMLAgclTglVMMWGTVt4AXmMErezS74s9eFHmHEpVgcSzVeDdQkGDKSYcCX01YrnePRk189fafyod9ZABlSdni+aJynLQZ0cFCjIKO5m6uQVBbKOq5p7H2p7Ed1MPd+eva39J33dR83r+531eL1u0OfKgfcyuull4IP3NmC/W4NMR9cNBUnLJ57/t/JF/8HDGT7UyelRICHWzB/YblqnCyJ0jfUQLpqinWXkzeF6TwqinW/WVohd6ukMUwfuYXRqY2FMUvJU7Te0qZihF1IrZquMfS8GqOYOFVsxJNrxHrZgdsY+lYNWkKVSYaIXbJMHUAZKYJ9nJiGiQEVqiAypEmK88ZKqK2e5CkSZArB/snQ42EcXwYsr5ysmCKXQlTMzFB59q3r6dwns59SquSYMpdNNwrJFamXe8YTgpoKs5NrpPHkwReaeHQ3Oq+xpE5xl8q8gs1HFuiNv1jtUznrpZypirDZasbtaZxnRXs3pGUecbzC1mNktTtss3FWSaI+YWLOevD7UGtGYFpeM+6s6jWU2y8qePetpNt7KcSu4GXcYYAm/Db2o70Ah1fit/kgilSCaYop7n0KwKDzeXbW82K9/7vm8yuX64gatcrvNRdqF0b+Sa5bGVXZkFM5lQiv8gITIC5p9s+XTKcDq9flnLq4+F8pfc6Ovsfcxdq/lOtKNlSnJKJLlgCv1Fmb87FiXvTarzlEkGU/hf2DWahe+LPSGAork/NE5fY0lKNphC91g+BQ99onAqNLtEtkhY0sEUOuUglTP3oyApPnkNPbNwrGjywRR63KRUTg4K0Vhyl4Boh2eFZiKYrc6gEPudNIQM8ry2dKKhqWAK7bCz30l9VGhuXZDsIM8h5oIptDki4ZziJkZjOdCcZNml2XvHmAymkGaJLoCPfdAXHeaQHmmuStP1haWm6y6zwWzpsPcUNwmi9JUw2nTdZT6YonOTIFbPZWqrpJlR11OyCGaL1XORSmRSJbuyCqZg9VyM7KpkV3bBbEn19Jfc/5KLEvIjo/GXuVXJrmyD2dJFCaFvUEvzKNGs3jG1WGCM7IMpOs1bmfvkmlt7KuhdulcLuXnUIoLZkslmXXPL/qcN7fasy6UEsrWoYLY6/U8GNE0SSBkbuMz93KRDFhnM1k5AS9DcKjSbFCSQm9z7kdRTXddyO79tHcYamZMTA+swbmreqY1OqZsTxiWgd/V4DgugoRrjX399YiBplLo5vf2mHmaDhaibVsYQcsMnOab0AnTQ/wEGB2qFJOkcxgAAAABJRU5ErkJggg==;" parent="1" vertex="1">
          <mxGeometry x="3128.8900000000003" y="-240" width="50" height="50" as="geometry" />
        </mxCell>
        <mxCell id="SIrYSXtYbPevu4pDanaV-13" value="" style="shape=image;verticalLabelPosition=bottom;labelBackgroundColor=default;verticalAlign=top;imageAspect=0;image=data:image/png,iVBORw0KGgoAAAANSUhEUgAAAOYAAADhCAYAAADcb8kDAAAACXBIWXMAADddAAA3XQEZgEZdAAAAAXNSR0IArs4c6QAAAARnQU1BAACxjwv8YQUAABJ6SURBVHgB7d39edTGFgbwd3nu/9dUkHEFgQoiKghUkKUCoALWFWAqYKkAqMCiApwKrFQQbgW6c6wjLJb9kLQz0pzR+3sexR+BZO3dd898CyAiIqLTVqDk1XXt/IcLvVznX7kTf7XSj9+712q1qkBJYzBn5kPXhu0JmuD9rh/bry8Qh4S00o+3/vqffqx8cG9Bs2IwJ6QhLNAE8Q804XNI031I/fW3fn7LSjsdBjMiH0QJXoGmCspHB9sqNCH96q+SlTUeBjMg7Qs+R1MNC8RrhqZCmsGlv76gCWoFCoLBPJMPY+E//IkmkA7LVvnrs7+++JCWoNEYzBE6YVwj/6o4VoWmmn5kSIdjMHvSMEoT9TUYxqEqNCG9YnO3HwbzCB1FXaOpjgUoBBkweu+vzz6k30F7MZh76GjqX2BTNSYJpfRHWUX3YDA7tLn6FqyOUyvRBLQE3WMwwUAmpEIT0C0WbtHB9IFcowmkA6WkwsIDushgaoX8AAYydRUWGtBFBZNNVrMqf71cUh90EcHUpXJSIQuQZVssZBQ362DqPOQrf21AOdn4633O86DZBtOHUtauvgP7kbmqkHH/M7tgstm6OFtk2Lx9hIz4UEqz9RsYyiVZ++ubf+5fIyNZVExWSVIlmtHbCsaZr5g+lLKmlVWSROGvG104YprZYMqIq79kcGcLLjSnB85fH+S1oaPyJplsyuruj0/giCsdV/nrmcWmrbmKqQM8N2Ao6TQHowNDpiqmNl2zGn2jyVz7yvkGRpgIpo66StP1CYjGk9MTXlho2iYfTA0lm64USgUD/c6k+5i6G0SmQhyIwnBo+p3PkbBkg9kZ5OFUCIUmr6lPKQ8KJRlM/wuTPZPXIIrrnb7WkpNcH1N/URsQTWfj+5xXSEhSweR0CM0oqXAmE0wfSlmEvgbRfLY+nC+RgCSCyVBSQpII5+yDP9p8XYMoDWstFLOaNZg60MM+JaVmPfdo7WxNWY6+kgGzDQjNEkyGkgyZJZyTB1NPHNiCyI61D+dHTGjSYOoG528gskXOr5WF77eYyGSDP52tW0TWtGtrHSYyScXUs1e4S4Ssq/z1dIoT4KeqmLyzFuXAoXktRxc9mDoCm/TeN6IBnk8xxxm1KasbnW9AlJ9nMW8LGC2YPBKEMif9zKexjiiJGUwJZYF5fderdQGeiGDV953LYf43/dIH8xkiiBLMRFb27P2l6QjxE73+0I8OlBIJnswZftWPt/sqUyJdpTf+sQU/bSN4MLUJe4f5vex770Rd+LD2159gSOciYfzsL1lhc9t3SiKRllnw/mbQYCY2X/l4zHyThlR2vEhI2eyNr0QTxs8jny95rt5hXhUCz2+GDmYqR4N88b+ks6Zo9E1G/hvSLHegkOQF3IaxxBn0efoX8wt60nuwYCY2NdK7GduH3taNAT2fBPI9mhdxsOqSSHNWBGvShlxgMPuu744SAUnI/XXpP5UjJyrQUBJC2Tp16X+PmwhL2r4iDR9C3fovSDB1FNYhDbfR5pYY0DG2aPpfMQLZKpEGh0BdubObsgmNwrbe+xfAJP1c/7Nv/Ac5MZ6DRL8q/XUVc3VMS6uUvAZTeR4uzy0OIYIpW7nOGmgJTO7m9BkT0Temjb/+QjgVmvk7qTD/4GFSvcLPiya+H6tC+oLtXsLpJV//ph+fINyLWh7Pm5B9/D78zyqzAancDe7shQdnBVMHRVLqW4qnU25obelNamRU2vX8K23Q5LH+3X6+mukuVBpip5e8wH/vfN6XDOzEbLIe5B//NZrWSyomLRA/8b+MuzoxmJl/CJsDD+3OXx/8JSewpfLOfpJ/rBf+KvTnuvHXvwd+tgIz8v//13Va7upAA0FDfxFv6/QkcWyJfxxOHou/rusmiFn1Qf3P86RugnCjP+PsP59/DM/r9Gww0qimbJ3uzpFoi4opbXV6g5BCmvSXY5r2Y6dLUp1sr0BLNXm/tgdpSYyaIRgcTH1nWiNN/4AWaY4Bp55e1SMO8RpTMZO80ScR0mwxSdUcnJlBwUy8WhKlaj20ag6tmKyWROMM6mv2DiarJdFZ/qoHTCsNqZislkTjDRqh7RVMrZYF0sfF5MvmkLZXfatm34pZwMYm4f+CFqm2sbqqd9XsG0wrzVgza1ApOAcbeu1COhnMutk14WADm7LL5WCDrKMuTv2hPhUz5D7D2JyRJg2FZ6m1dLIFejSYOuiT0iboPticXabfYUdxqoCcqpjWQikK0BIVsOXoINCpYKa0I7yvP0CLUjcbz611YY52EQ8GUzuoDvYU7GcuTgF7jg4CHauYlgZ9dllsgtN4Vl+rB1+nx4JZwC42Zxeifrh7m0UH31D2BtNwM1ZUaE79pgXQDdIvYdPFoebsoYpptWlQobl/RAVaDD3D1uqb8d7m7N7DuHyK5VAjB3vmO8uTZlenc3OhIeTQ7se73/ylYurQs4M9Vwzl4r2AvQPZ9jZn9zVlLY5oVnLTGtCiGe5vFrvf2BdMiyOaPEuW7ulNjN7Dll8y91Mfs07n7rxDXLFaUpe+juVUfgc7HneP4NytmAVsqfx1DaIOfYEHu+36RIruF9aDeZXwQb80Ix0ILGFH0f1iN5iW+pfV1PdgJHMszW3+lL0fwTS4tImre+goHQgqYcOT7uaLbsW0FEpWS+rL0hv4jwx2g1nADlZL6kWrZgUb9gbTUv+yBFF/H2FD0X7yYx7Tt29l/tLCBuMv/l2Q+y2pN0Pz89JFu5RP7iumPnAru/65HpYG0Sm1Eun7ccpj25S1NPDDYNIYX2BDIf+wFsySCwpoJCtv6E7+8aj7hQFW3vUoMbp5vkL67s/HfdT9woBbEI33Fem7b72aasrqnBTRWCXS99Pgj4UR2RJE57HQ4rofmX2kR4lY8DeIzlPBhgupmFbmLysQnUFH9Cuk74kE08GGCkTnq5C+C0vB5PwlhfAP0ufYlKWlsfAGb6qPyYpJIVh4Hf1XgvkbDOBSPArEwuvInbpxLVFuzDRlHYgoJResmEQJsjT4Q7QUpkZliUJwSJ+dpmz3zE2i3FnqYzKYtBgc/KGlMfEGbymYDkTnYzADY1OWQjCx0o3BpKUxUzGtrEF1IDqfQ/q+WwqmiSYIJc9CxfxuqSn7GERnMHS+lammrJWzbyldZg4FMNXH5OofOpOpimnhDJSWA9F4VlpdpiqmsHRXMkqPgw3/YzBpSQrYcD8qW8EOS7ejp4T48YkCdthrynIAiEay1Nq6D6a1W9uxOUtjWGptmVr503oOouEKGLFarW4fGbrRSov9TBpE+5emDjZ/1P3CCPYzaShLraz7rmUbTGv3nlyDqL8/Ycd9FttgWhsAsvSLphlpM9bBjkr+8aj7hSGFpZ0CNKu/YMtPTdkS9nB0lvooYMtDMHVk1tq0ySsOAtEx/vWxhrFmbHtXu+5G6RK2SChfg+iwt7DlxyDso33fNMRa/4EmYrBaih+DsJYrpnD6BBDtslYtRdl+smo/0f7av7BH2uSXvOM0tfTN+gPsefxLH1O/YW0+U7CvSbssVsvbbnHZPSXvK2ySEVoHWjz/OpBQOtjzU/Z2g1nCJqmaFpsuFJC+OW9gU9n9YtX9wnA/s/XGNweuQYvkX793sHtg2+ODTVn9FyXsesulesvkn/d3sBvKcnfwct9J7Fb7mUIq/ieuCFoW/3y/gu0BwC+739gXzBK2OX99Ai2CtpA2sK3c/cZq35/yP6z0M61XnWvfPHgDypYO9tzA9kHgsj72cvebh24q9BH2vdahc8pQJqEU5b5vHgrmZ+Rhw3DmJ6NQir1FcHXoT2fSnG2xWZsJ7VPKGIKDfXubseLY/TFzaM62pFn7jauDbPPPn2yOz6VSivLQvzgWzFyasy15p71hOG3SLolUypymwg4WvxWOML6S4piNb0JcgZKnb6Sy3LJAXg42Y8WpW73n1JztkkEhVs/E6cKBb8gvlOJoYThVMa2vne2D1TMxeuSkNF0L5Ev2EFeH/uXRipnB2tk+pHre8SSE+UkLxl/SbJUBngL5+nIslOJUU1YsoZo4f31gQOfRCaSMaayRv5M7oFboIfKcZonmILDu6Qny/3L++h3zvHNWaN6QylPvbDTeQpqsu44O+gzif4HS3Avtrs/gi76brvXPz+FD3cyfUQD+d3nhr7d1M6+8ROs+v6e+FVMqmDQzQlbNK//OsRnyF/SHmuvoiApNdf/oH3cJ6q1u3oDlzU3uOVNguSp/Pe1zcFyvYAr/y90g7CFH0kx8hoH0TWLjr1eYTzsoJvvo5BAli4eYRaPPkSzoaIPIzeuNrX+tvOzzB4cEM8bUyeipCq2esms9hZUgFZo+8lf9eLuk4zS1IhZ4GBNgEPe77Dtm0TuYwj8BW4Q//fyccDqku3ZSAtoeCSqDWxUMB1bfmNtK6NCEsP2cJ0ac1rtaiqHBdGj6mqHJ8PHVmBdt4uE8RNYhv7QQ0roZ+JKpDIbvPL2rpegzj/mD/odjLNN77a9v9YjRT31M0letYEOF5jQ/E5XTP055E3kPOsd26LTboIopIlbN1hZN9awG/J12n55UzpTf2SWMTy3Ojfrfr+zs4LTROJdDn/NBFVPo/yDmaqA1RmzP0pHR1FcpXVkMpZL+UQUaajvmOR9cMUWkec1dlb+ejaic0l+dcyrlkM/+Z3kBw+pmpc4NqK8KI17DYnDFFNo/it3vcGgq59Dwb5DmO7v5o010YUUJ6uvj2BbSqIopNDCyV84hrsELERJ8Zx80VJ4yVs3ezloTO6piCq2aU1SBom6Ov+9N39lTOholmx06rJq9nfWcj66YLR+aqfbOPRuyRnXCin7KqKWHKWPVPOns8YQQwXSIO33SqtBzAXArkReQLCTYIjN1XsebhjZ4emTX6KZsa4Lpk5bDwEX0WmHnHnQpkadcz4M6V5ApsbMrppi42TioSSsi7IzpK7tmbEtXafHmTT8Ltgn67IoptHk51ajj4IDpvs85BmD+Rr5K0K5g89RBgim0ik2xprKoR5zLM1M4S2RK34wrUOt9yH25QZqyrQmbtPKiuFyN241SoNkt4RDf01XGm6gjbQO0qMLAgclTglVMMWGTVt4AXmMErezS74s9eFHmHEpVgcSzVeDdQkGDKSYcCX01YrnePRk189fafyod9ZABlSdni+aJynLQZ0cFCjIKO5m6uQVBbKOq5p7H2p7Ed1MPd+eva39J33dR83r+531eL1u0OfKgfcyuull4IP3NmC/W4NMR9cNBUnLJ57/t/JF/8HDGT7UyelRICHWzB/YblqnCyJ0jfUQLpqinWXkzeF6TwqinW/WVohd6ukMUwfuYXRqY2FMUvJU7Te0qZihF1IrZquMfS8GqOYOFVsxJNrxHrZgdsY+lYNWkKVSYaIXbJMHUAZKYJ9nJiGiQEVqiAypEmK88ZKqK2e5CkSZArB/snQ42EcXwYsr5ysmCKXQlTMzFB59q3r6dwns59SquSYMpdNNwrJFamXe8YTgpoKs5NrpPHkwReaeHQ3Oq+xpE5xl8q8gs1HFuiNv1jtUznrpZypirDZasbtaZxnRXs3pGUecbzC1mNktTtss3FWSaI+YWLOevD7UGtGYFpeM+6s6jWU2y8qePetpNt7KcSu4GXcYYAm/Db2o70Ah1fit/kgilSCaYop7n0KwKDzeXbW82K9/7vm8yuX64gatcrvNRdqF0b+Sa5bGVXZkFM5lQiv8gITIC5p9s+XTKcDq9flnLq4+F8pfc6Ovsfcxdq/lOtKNlSnJKJLlgCv1Fmb87FiXvTarzlEkGU/hf2DWahe+LPSGAork/NE5fY0lKNphC91g+BQ99onAqNLtEtkhY0sEUOuUglTP3oyApPnkNPbNwrGjywRR63KRUTg4K0Vhyl4Boh2eFZiKYrc6gEPudNIQM8ry2dKKhqWAK7bCz30l9VGhuXZDsIM8h5oIptDki4ZziJkZjOdCcZNml2XvHmAymkGaJLoCPfdAXHeaQHmmuStP1haWm6y6zwWzpsPcUNwmi9JUw2nTdZT6YonOTIFbPZWqrpJlR11OyCGaL1XORSmRSJbuyCqZg9VyM7KpkV3bBbEn19Jfc/5KLEvIjo/GXuVXJrmyD2dJFCaFvUEvzKNGs3jG1WGCM7IMpOs1bmfvkmlt7KuhdulcLuXnUIoLZkslmXXPL/qcN7fasy6UEsrWoYLY6/U8GNE0SSBkbuMz93KRDFhnM1k5AS9DcKjSbFCSQm9z7kdRTXddyO79tHcYamZMTA+swbmreqY1OqZsTxiWgd/V4DgugoRrjX399YiBplLo5vf2mHmaDhaibVsYQcsMnOab0AnTQ/wEGB2qFJOkcxgAAAABJRU5ErkJggg==;" parent="1" vertex="1">
          <mxGeometry x="4528.89" y="-240" width="50" height="50" as="geometry" />
        </mxCell>
      </root>
    </mxGraphModel>
  </diagram>
</mxfile>
